<svg xmlns="http://www.w3.org/2000/svg" xmlns:v="https://svgstorm.com"
viewBox = "0 0 512 512"
width="512"
height="512">
<g fill="None" fill-opacity="0.0" stroke="#000000" stroke-opacity="0.00" stroke-width="0.3"><path d="
M 0.00 512.00 
L 512.00 512.00
L 512.00 0.00
L 0.00 0.00
L 0.00 512.00
M 404.00 110.00 
C 412.42 113.16 405.84 128.42 397.33 123.67 C 388.82 118.92 395.50 106.82 404.00 110.00
M 411.00 139.00 
C 409.71 145.11 409.29 159.81 410.00 166.00 C 410.71 172.19 410.49 189.54 403.77 184.23 C 397.05 178.92 404.73 164.66 401.00 158.00
C 397.67 165.78 401.17 172.19 399.00 181.00 C 396.83 189.81 388.68 182.09 391.00 174.00 C 393.32 165.91 389.26 156.23 391.00 148.00
C 393.51 155.45 384.95 167.04 384.00 157.00 C 383.06 146.95 383.09 139.97 385.78 131.78 C 388.47 123.58 398.40 125.77 405.00 125.00 C 411.60 124.23 418.35 134.62 417.00 140.00 C 415.65 145.38 421.16 159.79 414.92 161.92 C 408.67 164.04 411.47 142.70 411.00 139.00
M 321.00 129.00 
C 331.51 132.00 326.16 150.57 315.33 146.67 C 304.50 142.77 308.77 125.51 321.00 129.00
M 330.00 162.00 
C 328.50 170.52 328.57 178.46 329.00 188.00 C 329.43 197.54 327.81 204.70 329.00 215.00 C 330.19 225.30 319.50 225.31 320.00 215.00 C 320.50 204.68 318.63 198.71 318.00 189.00
C 318.01 194.63 314.31 207.25 316.00 213.00 C 317.69 218.75 306.41 233.76 307.00 217.00 C 307.59 200.24 305.65 181.91 306.00 165.00
C 300.82 173.40 309.50 180.51 305.00 190.00 C 300.50 199.49 294.76 186.73 297.00 179.00 C 299.24 171.27 294.97 162.73 299.77 155.77 C 304.57 148.81 310.71 147.98 319.00 148.00 C 327.29 148.02 332.55 149.78 336.77 157.23 C 340.99 164.68 336.51 172.27 339.00 181.00 C 341.49 189.73 332.66 199.13 331.00 188.00 C 329.35 176.86 332.51 172.16 330.00 162.00
M 389.00 169.00 
C 387.33 174.04 375.57 178.94 384.08 183.92 C 392.60 188.90 400.67 186.80 409.00 187.00 C 417.33 187.20 426.07 179.22 416.30 174.70 C 406.54 170.17 420.35 166.71 424.75 174.25 C 429.14 181.79 421.99 189.98 414.00 190.00
C 424.32 209.11 435.86 227.68 446.00 247.00
C 448.98 246.44 454.89 244.46 454.00 250.00
C 450.67 251.69 435.05 255.59 447.08 261.92 C 459.11 268.25 478.34 269.08 489.75 260.75 C 501.16 252.41 476.13 253.32 481.00 246.00
C 495.84 244.80 500.79 261.73 488.30 267.30 C 475.82 272.88 460.37 268.31 450.30 276.30 C 440.24 284.30 432.39 288.66 422.77 295.77 C 413.15 302.88 404.74 308.61 395.30 315.30 C 385.87 321.99 377.14 328.24 367.92 334.92 C 358.69 341.59 349.53 347.79 340.30 354.30 C 331.08 360.81 322.26 367.58 313.00 374.00
C 327.87 388.94 301.86 401.43 289.33 401.33 C 276.80 401.23 271.00 402.97 261.00 401.00 C 251.00 399.04 246.59 397.34 239.75 391.25 C 232.91 385.16 225.88 386.00 217.98 383.02 C 210.07 380.05 201.93 378.43 193.98 376.02 C 186.02 373.62 178.86 371.44 170.98 369.02 C 163.09 366.61 154.88 364.36 146.98 362.02 C 139.07 359.69 131.90 357.23 123.93 355.07 C 115.95 352.92 108.08 350.00 99.98 348.02 C 91.87 346.05 84.26 341.62 75.33 343.33 C 66.40 345.04 54.83 343.57 45.98 343.02 C 37.12 342.48 31.09 338.92 23.30 335.70 C 15.52 332.48 14.36 320.83 18.25 316.25 C 22.15 311.68 33.67 302.72 36.89 307.11 C 40.12 311.50 22.04 313.38 21.08 320.08 C 20.13 326.78 25.89 333.33 33.68 335.32 C 41.47 337.32 51.66 340.35 60.00 340.00 C 68.35 339.65 78.61 338.41 86.02 336.02 C 93.44 333.64 102.15 329.27 100.22 320.78 C 98.29 312.28 83.80 314.52 84.00 306.00
C 92.91 309.60 100.78 311.13 109.08 306.08 C 117.37 301.02 124.94 299.39 133.22 295.22 C 141.51 291.05 149.37 287.83 158.00 285.00
C 152.71 281.82 142.28 277.16 144.00 269.00 C 145.72 260.84 154.94 257.19 162.00 256.00
C 163.48 264.30 150.43 260.60 149.08 268.08 C 147.74 275.57 156.07 278.32 162.01 279.99 C 167.95 281.67 177.27 283.38 184.00 283.00 C 190.73 282.62 199.11 279.82 205.02 278.02 C 210.94 276.23 215.41 266.04 207.75 264.25 C 200.09 262.45 195.94 254.02 204.02 256.98 C 212.11 259.94 214.05 261.08 221.03 257.02 C 228.00 252.97 232.49 251.90 239.03 249.03 C 245.56 246.15 249.77 243.45 256.08 241.08 C 262.38 238.70 267.06 235.76 273.23 233.23 C 279.40 230.70 285.57 227.66 292.00 226.00
C 276.80 218.91 295.41 196.49 303.00 207.00
C 298.54 208.11 288.35 212.41 291.78 218.22 C 295.21 224.04 302.04 224.46 308.02 225.98 C 314.01 227.49 323.85 226.68 329.67 225.67 C 335.49 224.66 342.37 222.42 344.92 216.92 C 347.47 211.42 330.76 208.96 333.03 204.97 C 335.29 200.99 344.22 208.83 348.68 204.68 C 353.13 200.53 360.20 200.45 365.22 197.22 C 370.25 194.00 376.71 192.65 382.00 190.00
C 370.06 183.54 376.19 167.63 389.00 169.00
M 184.00 170.00 
C 196.24 173.71 188.69 195.26 176.33 189.67 C 163.97 184.08 171.41 166.18 184.00 170.00
M 471.00 179.00 
C 479.81 181.78 474.63 198.67 464.78 194.22 C 454.93 189.77 460.13 175.57 471.00 179.00
M 194.00 208.00 
C 192.38 218.20 192.73 226.67 193.00 238.00 C 193.27 249.33 192.11 256.49 193.00 269.00 C 193.89 281.51 182.16 280.04 183.00 268.00 C 183.84 255.96 180.89 249.69 180.00 239.00
C 180.45 249.23 176.15 256.20 178.00 267.00 C 179.85 277.80 167.53 283.03 167.00 271.00 C 166.48 258.96 167.27 251.22 167.00 240.00 C 166.73 228.78 167.20 220.00 167.00 209.00
C 163.09 219.95 166.91 225.29 165.00 238.00 C 163.09 250.71 153.29 240.21 156.00 230.00 C 158.71 219.79 153.61 210.57 158.92 201.92 C 164.23 193.28 170.51 192.23 180.00 192.00 C 189.49 191.77 195.77 193.30 201.30 201.70 C 206.84 210.10 201.14 219.84 204.00 230.00 C 206.86 240.16 197.28 250.78 195.00 238.00 C 192.73 225.21 197.35 219.66 194.00 208.00
M 479.00 212.00 
C 477.03 219.13 478.20 225.87 478.00 234.00 C 477.80 242.13 478.04 249.35 478.00 258.00 C 477.96 266.65 467.84 264.40 469.07 255.93 C 470.31 247.46 467.12 241.27 468.00 233.00
C 466.75 240.26 464.69 246.57 466.00 255.00 C 467.31 263.43 457.31 267.30 457.00 258.00 C 456.70 248.70 457.16 242.68 457.00 234.00 C 456.84 225.32 457.12 218.51 457.00 210.00
C 452.31 217.29 462.68 239.06 449.00 237.00
C 447.58 229.46 448.16 220.11 448.78 212.78 C 449.40 205.45 451.61 198.92 459.03 197.03 C 466.44 195.13 474.61 195.48 480.75 199.25 C 486.88 203.03 486.17 214.19 486.93 219.07 C 487.69 223.96 486.74 240.35 480.92 237.06 C 475.09 233.78 481.30 217.52 479.00 212.00
M 64.00 197.00 
C 79.31 200.24 73.70 226.60 57.78 222.22 C 41.85 217.84 47.62 193.53 64.00 197.00
M 45.00 326.00 
C 43.11 312.74 44.96 297.11 45.00 284.00
C 43.86 271.83 44.61 257.72 43.00 246.00
C 42.43 258.38 40.58 266.72 42.00 280.00 C 43.42 293.28 29.24 292.87 30.02 280.97 C 30.81 269.07 29.22 257.39 30.99 246.99 C 32.77 236.59 36.56 230.42 46.08 227.08 C 55.59 223.74 65.76 222.88 75.22 226.78 C 84.68 230.67 88.74 235.91 90.00 247.00 C 91.25 258.09 90.81 267.66 91.00 281.00 C 91.19 294.34 76.58 291.33 79.00 278.00 C 81.42 264.67 77.93 257.82 78.00 245.00
C 76.41 258.02 76.67 268.81 77.00 283.00 C 77.33 297.19 76.00 306.45 77.00 322.00 C 78.00 337.55 62.63 334.91 64.00 320.00 C 65.38 305.09 60.94 296.69 61.00 283.00
C 58.72 289.88 58.85 297.32 58.02 305.02 C 57.20 312.72 57.45 320.76 56.67 328.67 C 55.89 336.58 41.73 335.12 45.00 326.00 Z"/>
</g>
<g fill="None" fill-opacity="0.0" stroke="#221E20" stroke-opacity="0.87" stroke-width="0.3"><path d="
M 404.00 110.00 
C 395.50 106.82 388.82 118.92 397.33 123.67 C 405.84 128.42 412.42 113.16 404.00 110.00 Z"/>
</g>
<g fill="None" fill-opacity="0.0" stroke="#231F20" stroke-opacity="0.89" stroke-width="0.3"><path d="
M 411.00 139.00 
C 411.47 142.70 408.67 164.04 414.92 161.92 C 421.16 159.79 415.65 145.38 417.00 140.00 C 418.35 134.62 411.60 124.23 405.00 125.00 C 398.40 125.77 388.47 123.58 385.78 131.78 C 383.09 139.97 383.06 146.95 384.00 157.00 C 384.95 167.04 393.51 155.45 391.00 148.00
C 389.26 156.23 393.32 165.91 391.00 174.00 C 388.68 182.09 396.83 189.81 399.00 181.00 C 401.17 172.19 397.67 165.78 401.00 158.00
C 404.73 164.66 397.05 178.92 403.77 184.23 C 410.49 189.54 410.71 172.19 410.00 166.00 C 409.29 159.81 409.71 145.11 411.00 139.00 Z"/>
</g>
<g fill="None" fill-opacity="0.0" stroke="#231E1F" stroke-opacity="0.89" stroke-width="0.3"><path d="
M 321.00 129.00 
C 308.77 125.51 304.50 142.77 315.33 146.67 C 326.16 150.57 331.51 132.00 321.00 129.00 Z"/>
</g>
<g fill="None" fill-opacity="0.0" stroke="#231E1F" stroke-opacity="0.93" stroke-width="0.3"><path d="
M 330.00 162.00 
C 332.51 172.16 329.35 176.86 331.00 188.00 C 332.66 199.13 341.49 189.73 339.00 181.00 C 336.51 172.27 340.99 164.68 336.77 157.23 C 332.55 149.78 327.29 148.02 319.00 148.00 C 310.71 147.98 304.57 148.81 299.77 155.77 C 294.97 162.73 299.24 171.27 297.00 179.00 C 294.76 186.73 300.50 199.49 305.00 190.00 C 309.50 180.51 300.82 173.40 306.00 165.00
C 305.65 181.91 307.59 200.24 307.00 217.00 C 306.41 233.76 317.69 218.75 316.00 213.00 C 314.31 207.25 318.01 194.63 318.00 189.00
C 318.63 198.71 320.50 204.68 320.00 215.00 C 319.50 225.31 330.19 225.30 329.00 215.00 C 327.81 204.70 329.43 197.54 329.00 188.00 C 328.57 178.46 328.50 170.52 330.00 162.00 Z"/>
</g>
<g fill="None" fill-opacity="0.0" stroke="#231F1F" stroke-opacity="0.79" stroke-width="0.3"><path d="
M 389.00 169.00 
C 376.19 167.63 370.06 183.54 382.00 190.00
C 376.71 192.65 370.25 194.00 365.22 197.22 C 360.20 200.45 353.13 200.53 348.68 204.68 C 344.22 208.83 335.29 200.99 333.03 204.97 C 330.76 208.96 347.47 211.42 344.92 216.92 C 342.37 222.42 335.49 224.66 329.67 225.67 C 323.85 226.68 314.01 227.49 308.02 225.98 C 302.04 224.46 295.21 224.04 291.78 218.22 C 288.35 212.41 298.54 208.11 303.00 207.00
C 295.41 196.49 276.80 218.91 292.00 226.00
C 285.57 227.66 279.40 230.70 273.23 233.23 C 267.06 235.76 262.38 238.70 256.08 241.08 C 249.77 243.45 245.56 246.15 239.03 249.03 C 232.49 251.90 228.00 252.97 221.03 257.02 C 214.05 261.08 212.11 259.94 204.02 256.98 C 195.94 254.02 200.09 262.45 207.75 264.25 C 215.41 266.04 210.94 276.23 205.02 278.02 C 199.11 279.82 190.73 282.62 184.00 283.00 C 177.27 283.38 167.95 281.67 162.01 279.99 C 156.07 278.32 147.74 275.57 149.08 268.08 C 150.43 260.60 163.48 264.30 162.00 256.00
C 154.94 257.19 145.72 260.84 144.00 269.00 C 142.28 277.16 152.71 281.82 158.00 285.00
C 149.37 287.83 141.51 291.05 133.22 295.22 C 124.94 299.39 117.37 301.02 109.08 306.08 C 100.78 311.13 92.91 309.60 84.00 306.00
C 83.80 314.52 98.29 312.28 100.22 320.78 C 102.15 329.27 93.44 333.64 86.02 336.02 C 78.61 338.41 68.35 339.65 60.00 340.00 C 51.66 340.35 41.47 337.32 33.68 335.32 C 25.89 333.33 20.13 326.78 21.08 320.08 C 22.04 313.38 40.12 311.50 36.89 307.11 C 33.67 302.72 22.15 311.68 18.25 316.25 C 14.36 320.83 15.52 332.48 23.30 335.70 C 31.09 338.92 37.12 342.48 45.98 343.02 C 54.83 343.57 66.40 345.04 75.33 343.33 C 84.26 341.62 91.87 346.05 99.98 348.02 C 108.08 350.00 115.95 352.92 123.93 355.07 C 131.90 357.23 139.07 359.69 146.98 362.02 C 154.88 364.36 163.09 366.61 170.98 369.02 C 178.86 371.44 186.02 373.62 193.98 376.02 C 201.93 378.43 210.07 380.05 217.98 383.02 C 225.88 386.00 232.91 385.16 239.75 391.25 C 246.59 397.34 251.00 399.04 261.00 401.00 C 271.00 402.97 276.80 401.23 289.33 401.33 C 301.86 401.43 327.87 388.94 313.00 374.00
C 322.26 367.58 331.08 360.81 340.30 354.30 C 349.53 347.79 358.69 341.59 367.92 334.92 C 377.14 328.24 385.87 321.99 395.30 315.30 C 404.74 308.61 413.15 302.88 422.77 295.77 C 432.39 288.66 440.24 284.30 450.30 276.30 C 460.37 268.31 475.82 272.88 488.30 267.30 C 500.79 261.73 495.84 244.80 481.00 246.00
C 476.13 253.32 501.16 252.41 489.75 260.75 C 478.34 269.08 459.11 268.25 447.08 261.92 C 435.05 255.59 450.67 251.69 454.00 250.00
C 454.89 244.46 448.98 246.44 446.00 247.00
C 435.86 227.68 424.32 209.11 414.00 190.00
C 421.99 189.98 429.14 181.79 424.75 174.25 C 420.35 166.71 406.54 170.17 416.30 174.70 C 426.07 179.22 417.33 187.20 409.00 187.00 C 400.67 186.80 392.60 188.90 384.08 183.92 C 375.57 178.94 387.33 174.04 389.00 169.00
M 443.00 250.00 
C 440.07 251.31 439.44 254.52 438.00 257.00
C 405.39 247.13 372.82 237.22 340.00 228.00
C 346.28 224.94 354.25 216.60 347.00 210.00
C 356.15 205.69 368.24 201.59 377.03 197.03 C 385.81 192.46 403.77 186.92 411.30 194.70 C 418.83 202.47 420.61 213.47 426.92 222.08 C 433.23 230.68 436.47 241.49 443.00 250.00
M 452.00 269.00 
C 446.41 274.51 439.33 278.37 432.92 282.92 C 426.50 287.46 420.23 292.31 413.75 296.75 C 407.28 301.20 401.11 306.00 394.75 310.75 C 388.39 315.51 381.43 319.04 375.25 324.25 C 369.06 329.45 362.20 332.68 355.92 337.92 C 349.63 343.16 343.07 346.08 336.75 351.75 C 330.44 357.43 323.26 357.89 317.30 365.30 C 311.35 372.72 300.59 365.05 297.00 371.00
C 305.72 371.09 318.95 382.79 308.75 389.75 C 298.55 396.71 288.39 397.63 276.00 397.00 C 263.61 396.37 254.66 397.53 244.25 388.75 C 233.85 379.96 254.27 373.43 256.00 367.00
C 252.11 366.14 249.58 369.68 246.00 370.00
C 230.99 341.30 212.91 314.00 199.00 285.00
C 208.79 284.33 221.25 274.44 215.00 264.00
C 230.38 258.28 243.59 251.06 259.07 245.07 C 274.55 239.08 286.18 228.50 303.02 229.98 C 319.87 231.45 340.74 230.77 356.68 237.32 C 372.61 243.87 388.98 246.37 405.07 251.93 C 421.17 257.49 437.56 259.93 452.00 269.00
M 242.00 373.00 
C 238.49 375.12 236.18 378.99 236.00 383.00
C 186.97 370.42 139.04 353.68 90.00 341.00
C 99.38 336.19 112.28 324.95 102.00 314.00
C 111.63 310.83 121.57 304.04 131.08 301.08 C 140.59 298.11 151.47 289.64 160.69 287.70 C 169.92 285.75 189.98 283.30 196.25 290.75 C 202.52 298.20 206.13 309.89 211.77 318.23 C 217.41 326.57 221.59 336.33 226.92 345.08 C 232.25 353.83 237.67 363.76 242.00 373.00 Z"/>
</g>
<g fill="None" fill-opacity="0.0" stroke="#231F1F" stroke-opacity="0.91" stroke-width="0.3"><path d="
M 184.00 170.00 
C 171.41 166.18 163.97 184.08 176.33 189.67 C 188.69 195.26 196.24 173.71 184.00 170.00 Z"/>
</g>
<g fill="None" fill-opacity="0.0" stroke="#231F20" stroke-opacity="0.89" stroke-width="0.3"><path d="
M 471.00 179.00 
C 460.13 175.57 454.93 189.77 464.78 194.22 C 474.63 198.67 479.81 181.78 471.00 179.00 Z"/>
</g>
<g fill="None" fill-opacity="0.0" stroke="#000000" stroke-opacity="0.00" stroke-width="0.3"><path d="
M 443.00 250.00 
C 436.47 241.49 433.23 230.68 426.92 222.08 C 420.61 213.47 418.83 202.47 411.30 194.70 C 403.77 186.92 385.81 192.46 377.03 197.03 C 368.24 201.59 356.15 205.69 347.00 210.00
C 354.25 216.60 346.28 224.94 340.00 228.00
C 372.82 237.22 405.39 247.13 438.00 257.00
C 439.44 254.52 440.07 251.31 443.00 250.00 Z"/>
</g>
<g fill="None" fill-opacity="0.0" stroke="#231F1F" stroke-opacity="0.93" stroke-width="0.3"><path d="
M 194.00 208.00 
C 197.35 219.66 192.73 225.21 195.00 238.00 C 197.28 250.78 206.86 240.16 204.00 230.00 C 201.14 219.84 206.84 210.10 201.30 201.70 C 195.77 193.30 189.49 191.77 180.00 192.00 C 170.51 192.23 164.23 193.28 158.92 201.92 C 153.61 210.57 158.71 219.79 156.00 230.00 C 153.29 240.21 163.09 250.71 165.00 238.00 C 166.91 225.29 163.09 219.95 167.00 209.00
C 167.20 220.00 166.73 228.78 167.00 240.00 C 167.27 251.22 166.48 258.96 167.00 271.00 C 167.53 283.03 179.85 277.80 178.00 267.00 C 176.15 256.20 180.45 249.23 180.00 239.00
C 180.89 249.69 183.84 255.96 183.00 268.00 C 182.16 280.04 193.89 281.51 193.00 269.00 C 192.11 256.49 193.27 249.33 193.00 238.00 C 192.73 226.67 192.38 218.20 194.00 208.00 Z"/>
</g>
<g fill="None" fill-opacity="0.0" stroke="#231E1F" stroke-opacity="0.90" stroke-width="0.3"><path d="
M 479.00 212.00 
C 481.30 217.52 475.09 233.78 480.92 237.06 C 486.74 240.35 487.69 223.96 486.93 219.07 C 486.17 214.19 486.88 203.03 480.75 199.25 C 474.61 195.48 466.44 195.13 459.03 197.03 C 451.61 198.92 449.40 205.45 448.78 212.78 C 448.16 220.11 447.58 229.46 449.00 237.00
C 462.68 239.06 452.31 217.29 457.00 210.00
C 457.12 218.51 456.84 225.32 457.00 234.00 C 457.16 242.68 456.70 248.70 457.00 258.00 C 457.31 267.30 467.31 263.43 466.00 255.00 C 464.69 246.57 466.75 240.26 468.00 233.00
C 467.12 241.27 470.31 247.46 469.07 255.93 C 467.84 264.40 477.96 266.65 478.00 258.00 C 478.04 249.35 477.80 242.13 478.00 234.00 C 478.20 225.87 477.03 219.13 479.00 212.00 Z"/>
</g>
<g fill="None" fill-opacity="0.0" stroke="#231F20" stroke-opacity="0.93" stroke-width="0.3"><path d="
M 64.00 197.00 
C 47.62 193.53 41.85 217.84 57.78 222.22 C 73.70 226.60 79.31 200.24 64.00 197.00 Z"/>
</g>
<g fill="None" fill-opacity="0.0" stroke="#231F20" stroke-opacity="0.94" stroke-width="0.3"><path d="
M 45.00 284.00 
C 46.30 297.84 44.47 312.11 45.00 326.00
C 41.73 335.12 55.89 336.58 56.67 328.67 C 57.45 320.76 57.20 312.72 58.02 305.02 C 58.85 297.32 58.72 289.88 61.00 283.00
C 60.94 296.69 65.38 305.09 64.00 320.00 C 62.63 334.91 78.00 337.55 77.00 322.00 C 76.00 306.45 77.33 297.19 77.00 283.00 C 76.67 268.81 76.41 258.02 78.00 245.00
C 77.93 257.82 81.42 264.67 79.00 278.00 C 76.58 291.33 91.19 294.34 91.00 281.00 C 90.81 267.66 91.25 258.09 90.00 247.00 C 88.74 235.91 84.68 230.67 75.22 226.78 C 65.76 222.88 55.59 223.74 46.08 227.08 C 36.56 230.42 32.77 236.59 30.99 246.99 C 29.22 257.39 30.81 269.07 30.02 280.97 C 29.24 292.87 43.42 293.28 42.00 280.00 C 40.58 266.72 42.43 258.38 43.00 246.00
C 44.61 257.72 43.86 271.83 45.00 284.00 Z"/>
</g>
<g fill="None" fill-opacity="0.0" stroke="#000000" stroke-opacity="0.00" stroke-width="0.3"><path d="
M 452.00 269.00 
C 437.56 259.93 421.17 257.49 405.07 251.93 C 388.98 246.37 372.61 243.87 356.68 237.32 C 340.74 230.77 319.87 231.45 303.02 229.98 C 286.18 228.50 274.55 239.08 259.07 245.07 C 243.59 251.06 230.38 258.28 215.00 264.00
C 221.25 274.44 208.79 284.33 199.00 285.00
C 212.91 314.00 230.99 341.30 246.00 370.00
C 249.58 369.68 252.11 366.14 256.00 367.00
C 254.27 373.43 233.85 379.96 244.25 388.75 C 254.66 397.53 263.61 396.37 276.00 397.00 C 288.39 397.63 298.55 396.71 308.75 389.75 C 318.95 382.79 305.72 371.09 297.00 371.00
C 300.59 365.05 311.35 372.72 317.30 365.30 C 323.26 357.89 330.44 357.43 336.75 351.75 C 343.07 346.08 349.63 343.16 355.92 337.92 C 362.20 332.68 369.06 329.45 375.25 324.25 C 381.43 319.04 388.39 315.51 394.75 310.75 C 401.11 306.00 407.28 301.20 413.75 296.75 C 420.23 292.31 426.50 287.46 432.92 282.92 C 439.33 278.37 446.41 274.51 452.00 269.00
M 279.00 269.00 
C 293.11 270.99 289.85 295.23 274.92 292.07 C 260.00 288.91 264.34 266.93 279.00 269.00
M 293.00 314.00 
C 291.01 325.47 292.22 335.43 292.00 348.00 C 291.78 360.57 292.04 369.33 292.00 383.00 C 291.96 396.67 278.38 392.86 280.00 380.00 C 281.62 367.14 276.73 358.81 277.00 347.00
C 277.15 358.74 271.89 366.02 274.00 379.00 C 276.11 391.98 262.14 397.21 262.00 383.00 C 261.86 368.79 262.28 360.91 262.00 348.00 C 261.72 335.09 263.04 324.73 261.00 313.00
C 260.83 324.72 258.29 330.18 260.00 343.00 C 261.71 355.82 248.78 355.77 250.00 344.00 C 251.22 332.23 247.95 324.78 250.00 315.00 C 252.05 305.22 254.38 300.83 262.70 296.70 C 271.01 292.56 280.44 292.96 289.07 295.93 C 297.71 298.90 301.33 303.38 303.00 313.00 C 304.67 322.62 302.75 331.55 304.00 343.00 C 305.25 354.45 292.72 357.07 294.00 344.00 C 295.28 330.93 293.49 325.92 293.00 314.00 Z"/>
</g>
<g fill="None" fill-opacity="0.0" stroke="#231F20" stroke-opacity="0.91" stroke-width="0.3"><path d="
M 279.00 269.00 
C 264.34 266.93 260.00 288.91 274.92 292.07 C 289.85 295.23 293.11 270.99 279.00 269.00 Z"/>
</g>
<g fill="None" fill-opacity="0.0" stroke="#2D1717" stroke-opacity="0.04" stroke-width="0.3"><path d="
M 45.00 326.00 
C 44.47 312.11 46.30 297.84 45.00 284.00
C 44.96 297.11 43.11 312.74 45.00 326.00 Z"/>
</g>
<g fill="None" fill-opacity="0.0" stroke="#000000" stroke-opacity="0.00" stroke-width="0.3"><path d="
M 242.00 373.00 
C 237.67 363.76 232.25 353.83 226.92 345.08 C 221.59 336.33 217.41 326.57 211.77 318.23 C 206.13 309.89 202.52 298.20 196.25 290.75 C 189.98 283.30 169.92 285.75 160.69 287.70 C 151.47 289.64 140.59 298.11 131.08 301.08 C 121.57 304.04 111.63 310.83 102.00 314.00
C 112.28 324.95 99.38 336.19 90.00 341.00
C 139.04 353.68 186.97 370.42 236.00 383.00
C 236.18 378.99 238.49 375.12 242.00 373.00 Z"/>
</g>
<g fill="None" fill-opacity="0.0" stroke="#231E1F" stroke-opacity="0.93" stroke-width="0.3"><path d="
M 293.00 314.00 
C 293.49 325.92 295.28 330.93 294.00 344.00 C 292.72 357.07 305.25 354.45 304.00 343.00 C 302.75 331.55 304.67 322.62 303.00 313.00 C 301.33 303.38 297.71 298.90 289.07 295.93 C 280.44 292.96 271.01 292.56 262.70 296.70 C 254.38 300.83 252.05 305.22 250.00 315.00 C 247.95 324.78 251.22 332.23 250.00 344.00 C 248.78 355.77 261.71 355.82 260.00 343.00 C 258.29 330.18 260.83 324.72 261.00 313.00
C 263.04 324.73 261.72 335.09 262.00 348.00 C 262.28 360.91 261.86 368.79 262.00 383.00 C 262.14 397.21 276.11 391.98 274.00 379.00 C 271.89 366.02 277.15 358.74 277.00 347.00
C 276.73 358.81 281.62 367.14 280.00 380.00 C 278.38 392.86 291.96 396.67 292.00 383.00 C 292.04 369.33 291.78 360.57 292.00 348.00 C 292.22 335.43 291.01 325.47 293.00 314.00 Z"/>
</g>
<g fill="#000000" fill-opacity="0.00" stroke="None">
<path d="
M 0.00 512.00 
L 512.00 512.00
L 512.00 0.00
L 0.00 0.00
L 0.00 512.00
M 404.00 110.00 
C 412.42 113.16 405.84 128.42 397.33 123.67 C 388.82 118.92 395.50 106.82 404.00 110.00
M 411.00 139.00 
C 409.71 145.11 409.29 159.81 410.00 166.00 C 410.71 172.19 410.49 189.54 403.77 184.23 C 397.05 178.92 404.73 164.66 401.00 158.00
C 397.67 165.78 401.17 172.19 399.00 181.00 C 396.83 189.81 388.68 182.09 391.00 174.00 C 393.32 165.91 389.26 156.23 391.00 148.00
C 393.51 155.45 384.95 167.04 384.00 157.00 C 383.06 146.95 383.09 139.97 385.78 131.78 C 388.47 123.58 398.40 125.77 405.00 125.00 C 411.60 124.23 418.35 134.62 417.00 140.00 C 415.65 145.38 421.16 159.79 414.92 161.92 C 408.67 164.04 411.47 142.70 411.00 139.00
M 321.00 129.00 
C 331.51 132.00 326.16 150.57 315.33 146.67 C 304.50 142.77 308.77 125.51 321.00 129.00
M 330.00 162.00 
C 328.50 170.52 328.57 178.46 329.00 188.00 C 329.43 197.54 327.81 204.70 329.00 215.00 C 330.19 225.30 319.50 225.31 320.00 215.00 C 320.50 204.68 318.63 198.71 318.00 189.00
C 318.01 194.63 314.31 207.25 316.00 213.00 C 317.69 218.75 306.41 233.76 307.00 217.00 C 307.59 200.24 305.65 181.91 306.00 165.00
C 300.82 173.40 309.50 180.51 305.00 190.00 C 300.50 199.49 294.76 186.73 297.00 179.00 C 299.24 171.27 294.97 162.73 299.77 155.77 C 304.57 148.81 310.71 147.98 319.00 148.00 C 327.29 148.02 332.55 149.78 336.77 157.23 C 340.99 164.68 336.51 172.27 339.00 181.00 C 341.49 189.73 332.66 199.13 331.00 188.00 C 329.35 176.86 332.51 172.16 330.00 162.00
M 389.00 169.00 
C 387.33 174.04 375.57 178.94 384.08 183.92 C 392.60 188.90 400.67 186.80 409.00 187.00 C 417.33 187.20 426.07 179.22 416.30 174.70 C 406.54 170.17 420.35 166.71 424.75 174.25 C 429.14 181.79 421.99 189.98 414.00 190.00
C 424.32 209.11 435.86 227.68 446.00 247.00
C 448.98 246.44 454.89 244.46 454.00 250.00
C 450.67 251.69 435.05 255.59 447.08 261.92 C 459.11 268.25 478.34 269.08 489.75 260.75 C 501.16 252.41 476.13 253.32 481.00 246.00
C 495.84 244.80 500.79 261.73 488.30 267.30 C 475.82 272.88 460.37 268.31 450.30 276.30 C 440.24 284.30 432.39 288.66 422.77 295.77 C 413.15 302.88 404.74 308.61 395.30 315.30 C 385.87 321.99 377.14 328.24 367.92 334.92 C 358.69 341.59 349.53 347.79 340.30 354.30 C 331.08 360.81 322.26 367.58 313.00 374.00
C 327.87 388.94 301.86 401.43 289.33 401.33 C 276.80 401.23 271.00 402.97 261.00 401.00 C 251.00 399.04 246.59 397.34 239.75 391.25 C 232.91 385.16 225.88 386.00 217.98 383.02 C 210.07 380.05 201.93 378.43 193.98 376.02 C 186.02 373.62 178.86 371.44 170.98 369.02 C 163.09 366.61 154.88 364.36 146.98 362.02 C 139.07 359.69 131.90 357.23 123.93 355.07 C 115.95 352.92 108.08 350.00 99.98 348.02 C 91.87 346.05 84.26 341.62 75.33 343.33 C 66.40 345.04 54.83 343.57 45.98 343.02 C 37.12 342.48 31.09 338.92 23.30 335.70 C 15.52 332.48 14.36 320.83 18.25 316.25 C 22.15 311.68 33.67 302.72 36.89 307.11 C 40.12 311.50 22.04 313.38 21.08 320.08 C 20.13 326.78 25.89 333.33 33.68 335.32 C 41.47 337.32 51.66 340.35 60.00 340.00 C 68.35 339.65 78.61 338.41 86.02 336.02 C 93.44 333.64 102.15 329.27 100.22 320.78 C 98.29 312.28 83.80 314.52 84.00 306.00
C 92.91 309.60 100.78 311.13 109.08 306.08 C 117.37 301.02 124.94 299.39 133.22 295.22 C 141.51 291.05 149.37 287.83 158.00 285.00
C 152.71 281.82 142.28 277.16 144.00 269.00 C 145.72 260.84 154.94 257.19 162.00 256.00
C 163.48 264.30 150.43 260.60 149.08 268.08 C 147.74 275.57 156.07 278.32 162.01 279.99 C 167.95 281.67 177.27 283.38 184.00 283.00 C 190.73 282.62 199.11 279.82 205.02 278.02 C 210.94 276.23 215.41 266.04 207.75 264.25 C 200.09 262.45 195.94 254.02 204.02 256.98 C 212.11 259.94 214.05 261.08 221.03 257.02 C 228.00 252.97 232.49 251.90 239.03 249.03 C 245.56 246.15 249.77 243.45 256.08 241.08 C 262.38 238.70 267.06 235.76 273.23 233.23 C 279.40 230.70 285.57 227.66 292.00 226.00
C 276.80 218.91 295.41 196.49 303.00 207.00
C 298.54 208.11 288.35 212.41 291.78 218.22 C 295.21 224.04 302.04 224.46 308.02 225.98 C 314.01 227.49 323.85 226.68 329.67 225.67 C 335.49 224.66 342.37 222.42 344.92 216.92 C 347.47 211.42 330.76 208.96 333.03 204.97 C 335.29 200.99 344.22 208.83 348.68 204.68 C 353.13 200.53 360.20 200.45 365.22 197.22 C 370.25 194.00 376.71 192.65 382.00 190.00
C 370.06 183.54 376.19 167.63 389.00 169.00
M 184.00 170.00 
C 196.24 173.71 188.69 195.26 176.33 189.67 C 163.97 184.08 171.41 166.18 184.00 170.00
M 471.00 179.00 
C 479.81 181.78 474.63 198.67 464.78 194.22 C 454.93 189.77 460.13 175.57 471.00 179.00
M 194.00 208.00 
C 192.38 218.20 192.73 226.67 193.00 238.00 C 193.27 249.33 192.11 256.49 193.00 269.00 C 193.89 281.51 182.16 280.04 183.00 268.00 C 183.84 255.96 180.89 249.69 180.00 239.00
C 180.45 249.23 176.15 256.20 178.00 267.00 C 179.85 277.80 167.53 283.03 167.00 271.00 C 166.48 258.96 167.27 251.22 167.00 240.00 C 166.73 228.78 167.20 220.00 167.00 209.00
C 163.09 219.95 166.91 225.29 165.00 238.00 C 163.09 250.71 153.29 240.21 156.00 230.00 C 158.71 219.79 153.61 210.57 158.92 201.92 C 164.23 193.28 170.51 192.23 180.00 192.00 C 189.49 191.77 195.77 193.30 201.30 201.70 C 206.84 210.10 201.14 219.84 204.00 230.00 C 206.86 240.16 197.28 250.78 195.00 238.00 C 192.73 225.21 197.35 219.66 194.00 208.00
M 479.00 212.00 
C 477.03 219.13 478.20 225.87 478.00 234.00 C 477.80 242.13 478.04 249.35 478.00 258.00 C 477.96 266.65 467.84 264.40 469.07 255.93 C 470.31 247.46 467.12 241.27 468.00 233.00
C 466.75 240.26 464.69 246.57 466.00 255.00 C 467.31 263.43 457.31 267.30 457.00 258.00 C 456.70 248.70 457.16 242.68 457.00 234.00 C 456.84 225.32 457.12 218.51 457.00 210.00
C 452.31 217.29 462.68 239.06 449.00 237.00
C 447.58 229.46 448.16 220.11 448.78 212.78 C 449.40 205.45 451.61 198.92 459.03 197.03 C 466.44 195.13 474.61 195.48 480.75 199.25 C 486.88 203.03 486.17 214.19 486.93 219.07 C 487.69 223.96 486.74 240.35 480.92 237.06 C 475.09 233.78 481.30 217.52 479.00 212.00
M 64.00 197.00 
C 79.31 200.24 73.70 226.60 57.78 222.22 C 41.85 217.84 47.62 193.53 64.00 197.00
M 45.00 326.00 
C 43.11 312.74 44.96 297.11 45.00 284.00
C 43.86 271.83 44.61 257.72 43.00 246.00
C 42.43 258.38 40.58 266.72 42.00 280.00 C 43.42 293.28 29.24 292.87 30.02 280.97 C 30.81 269.07 29.22 257.39 30.99 246.99 C 32.77 236.59 36.56 230.42 46.08 227.08 C 55.59 223.74 65.76 222.88 75.22 226.78 C 84.68 230.67 88.74 235.91 90.00 247.00 C 91.25 258.09 90.81 267.66 91.00 281.00 C 91.19 294.34 76.58 291.33 79.00 278.00 C 81.42 264.67 77.93 257.82 78.00 245.00
C 76.41 258.02 76.67 268.81 77.00 283.00 C 77.33 297.19 76.00 306.45 77.00 322.00 C 78.00 337.55 62.63 334.91 64.00 320.00 C 65.38 305.09 60.94 296.69 61.00 283.00
C 58.72 289.88 58.85 297.32 58.02 305.02 C 57.20 312.72 57.45 320.76 56.67 328.67 C 55.89 336.58 41.73 335.12 45.00 326.00 Z"/>
</g>
<g fill="#221E20" fill-opacity="0.87" stroke="None">
<path d="
M 404.00 110.00 
C 395.50 106.82 388.82 118.92 397.33 123.67 C 405.84 128.42 412.42 113.16 404.00 110.00 Z"/>
</g>
<g fill="#231F20" fill-opacity="0.89" stroke="None">
<path d="
M 411.00 139.00 
C 411.47 142.70 408.67 164.04 414.92 161.92 C 421.16 159.79 415.65 145.38 417.00 140.00 C 418.35 134.62 411.60 124.23 405.00 125.00 C 398.40 125.77 388.47 123.58 385.78 131.78 C 383.09 139.97 383.06 146.95 384.00 157.00 C 384.95 167.04 393.51 155.45 391.00 148.00
C 389.26 156.23 393.32 165.91 391.00 174.00 C 388.68 182.09 396.83 189.81 399.00 181.00 C 401.17 172.19 397.67 165.78 401.00 158.00
C 404.73 164.66 397.05 178.92 403.77 184.23 C 410.49 189.54 410.71 172.19 410.00 166.00 C 409.29 159.81 409.71 145.11 411.00 139.00 Z"/>
</g>
<g fill="#231E1F" fill-opacity="0.89" stroke="None">
<path d="
M 321.00 129.00 
C 308.77 125.51 304.50 142.77 315.33 146.67 C 326.16 150.57 331.51 132.00 321.00 129.00 Z"/>
</g>
<g fill="#231E1F" fill-opacity="0.93" stroke="None">
<path d="
M 330.00 162.00 
C 332.51 172.16 329.35 176.86 331.00 188.00 C 332.66 199.13 341.49 189.73 339.00 181.00 C 336.51 172.27 340.99 164.68 336.77 157.23 C 332.55 149.78 327.29 148.02 319.00 148.00 C 310.71 147.98 304.57 148.81 299.77 155.77 C 294.97 162.73 299.24 171.27 297.00 179.00 C 294.76 186.73 300.50 199.49 305.00 190.00 C 309.50 180.51 300.82 173.40 306.00 165.00
C 305.65 181.91 307.59 200.24 307.00 217.00 C 306.41 233.76 317.69 218.75 316.00 213.00 C 314.31 207.25 318.01 194.63 318.00 189.00
C 318.63 198.71 320.50 204.68 320.00 215.00 C 319.50 225.31 330.19 225.30 329.00 215.00 C 327.81 204.70 329.43 197.54 329.00 188.00 C 328.57 178.46 328.50 170.52 330.00 162.00 Z"/>
</g>
<g fill="#231F1F" fill-opacity="0.79" stroke="None">
<path d="
M 389.00 169.00 
C 376.19 167.63 370.06 183.54 382.00 190.00
C 376.71 192.65 370.25 194.00 365.22 197.22 C 360.20 200.45 353.13 200.53 348.68 204.68 C 344.22 208.83 335.29 200.99 333.03 204.97 C 330.76 208.96 347.47 211.42 344.92 216.92 C 342.37 222.42 335.49 224.66 329.67 225.67 C 323.85 226.68 314.01 227.49 308.02 225.98 C 302.04 224.46 295.21 224.04 291.78 218.22 C 288.35 212.41 298.54 208.11 303.00 207.00
C 295.41 196.49 276.80 218.91 292.00 226.00
C 285.57 227.66 279.40 230.70 273.23 233.23 C 267.06 235.76 262.38 238.70 256.08 241.08 C 249.77 243.45 245.56 246.15 239.03 249.03 C 232.49 251.90 228.00 252.97 221.03 257.02 C 214.05 261.08 212.11 259.94 204.02 256.98 C 195.94 254.02 200.09 262.45 207.75 264.25 C 215.41 266.04 210.94 276.23 205.02 278.02 C 199.11 279.82 190.73 282.62 184.00 283.00 C 177.27 283.38 167.95 281.67 162.01 279.99 C 156.07 278.32 147.74 275.57 149.08 268.08 C 150.43 260.60 163.48 264.30 162.00 256.00
C 154.94 257.19 145.72 260.84 144.00 269.00 C 142.28 277.16 152.71 281.82 158.00 285.00
C 149.37 287.83 141.51 291.05 133.22 295.22 C 124.94 299.39 117.37 301.02 109.08 306.08 C 100.78 311.13 92.91 309.60 84.00 306.00
C 83.80 314.52 98.29 312.28 100.22 320.78 C 102.15 329.27 93.44 333.64 86.02 336.02 C 78.61 338.41 68.35 339.65 60.00 340.00 C 51.66 340.35 41.47 337.32 33.68 335.32 C 25.89 333.33 20.13 326.78 21.08 320.08 C 22.04 313.38 40.12 311.50 36.89 307.11 C 33.67 302.72 22.15 311.68 18.25 316.25 C 14.36 320.83 15.52 332.48 23.30 335.70 C 31.09 338.92 37.12 342.48 45.98 343.02 C 54.83 343.57 66.40 345.04 75.33 343.33 C 84.26 341.62 91.87 346.05 99.98 348.02 C 108.08 350.00 115.95 352.92 123.93 355.07 C 131.90 357.23 139.07 359.69 146.98 362.02 C 154.88 364.36 163.09 366.61 170.98 369.02 C 178.86 371.44 186.02 373.62 193.98 376.02 C 201.93 378.43 210.07 380.05 217.98 383.02 C 225.88 386.00 232.91 385.16 239.75 391.25 C 246.59 397.34 251.00 399.04 261.00 401.00 C 271.00 402.97 276.80 401.23 289.33 401.33 C 301.86 401.43 327.87 388.94 313.00 374.00
C 322.26 367.58 331.08 360.81 340.30 354.30 C 349.53 347.79 358.69 341.59 367.92 334.92 C 377.14 328.24 385.87 321.99 395.30 315.30 C 404.74 308.61 413.15 302.88 422.77 295.77 C 432.39 288.66 440.24 284.30 450.30 276.30 C 460.37 268.31 475.82 272.88 488.30 267.30 C 500.79 261.73 495.84 244.80 481.00 246.00
C 476.13 253.32 501.16 252.41 489.75 260.75 C 478.34 269.08 459.11 268.25 447.08 261.92 C 435.05 255.59 450.67 251.69 454.00 250.00
C 454.89 244.46 448.98 246.44 446.00 247.00
C 435.86 227.68 424.32 209.11 414.00 190.00
C 421.99 189.98 429.14 181.79 424.75 174.25 C 420.35 166.71 406.54 170.17 416.30 174.70 C 426.07 179.22 417.33 187.20 409.00 187.00 C 400.67 186.80 392.60 188.90 384.08 183.92 C 375.57 178.94 387.33 174.04 389.00 169.00
M 443.00 250.00 
C 440.07 251.31 439.44 254.52 438.00 257.00
C 405.39 247.13 372.82 237.22 340.00 228.00
C 346.28 224.94 354.25 216.60 347.00 210.00
C 356.15 205.69 368.24 201.59 377.03 197.03 C 385.81 192.46 403.77 186.92 411.30 194.70 C 418.83 202.47 420.61 213.47 426.92 222.08 C 433.23 230.68 436.47 241.49 443.00 250.00
M 452.00 269.00 
C 446.41 274.51 439.33 278.37 432.92 282.92 C 426.50 287.46 420.23 292.31 413.75 296.75 C 407.28 301.20 401.11 306.00 394.75 310.75 C 388.39 315.51 381.43 319.04 375.25 324.25 C 369.06 329.45 362.20 332.68 355.92 337.92 C 349.63 343.16 343.07 346.08 336.75 351.75 C 330.44 357.43 323.26 357.89 317.30 365.30 C 311.35 372.72 300.59 365.05 297.00 371.00
C 305.72 371.09 318.95 382.79 308.75 389.75 C 298.55 396.71 288.39 397.63 276.00 397.00 C 263.61 396.37 254.66 397.53 244.25 388.75 C 233.85 379.96 254.27 373.43 256.00 367.00
C 252.11 366.14 249.58 369.68 246.00 370.00
C 230.99 341.30 212.91 314.00 199.00 285.00
C 208.79 284.33 221.25 274.44 215.00 264.00
C 230.38 258.28 243.59 251.06 259.07 245.07 C 274.55 239.08 286.18 228.50 303.02 229.98 C 319.87 231.45 340.74 230.77 356.68 237.32 C 372.61 243.87 388.98 246.37 405.07 251.93 C 421.17 257.49 437.56 259.93 452.00 269.00
M 242.00 373.00 
C 238.49 375.12 236.18 378.99 236.00 383.00
C 186.97 370.42 139.04 353.68 90.00 341.00
C 99.38 336.19 112.28 324.95 102.00 314.00
C 111.63 310.83 121.57 304.04 131.08 301.08 C 140.59 298.11 151.47 289.64 160.69 287.70 C 169.92 285.75 189.98 283.30 196.25 290.75 C 202.52 298.20 206.13 309.89 211.77 318.23 C 217.41 326.57 221.59 336.33 226.92 345.08 C 232.25 353.83 237.67 363.76 242.00 373.00 Z"/>
</g>
<g fill="#231F1F" fill-opacity="0.91" stroke="None">
<path d="
M 184.00 170.00 
C 171.41 166.18 163.97 184.08 176.33 189.67 C 188.69 195.26 196.24 173.71 184.00 170.00 Z"/>
</g>
<g fill="#231F20" fill-opacity="0.89" stroke="None">
<path d="
M 471.00 179.00 
C 460.13 175.57 454.93 189.77 464.78 194.22 C 474.63 198.67 479.81 181.78 471.00 179.00 Z"/>
</g>
<g fill="#000000" fill-opacity="0.00" stroke="None">
<path d="
M 443.00 250.00 
C 436.47 241.49 433.23 230.68 426.92 222.08 C 420.61 213.47 418.83 202.47 411.30 194.70 C 403.77 186.92 385.81 192.46 377.03 197.03 C 368.24 201.59 356.15 205.69 347.00 210.00
C 354.25 216.60 346.28 224.94 340.00 228.00
C 372.82 237.22 405.39 247.13 438.00 257.00
C 439.44 254.52 440.07 251.31 443.00 250.00 Z"/>
</g>
<g fill="#231F1F" fill-opacity="0.93" stroke="None">
<path d="
M 194.00 208.00 
C 197.35 219.66 192.73 225.21 195.00 238.00 C 197.28 250.78 206.86 240.16 204.00 230.00 C 201.14 219.84 206.84 210.10 201.30 201.70 C 195.77 193.30 189.49 191.77 180.00 192.00 C 170.51 192.23 164.23 193.28 158.92 201.92 C 153.61 210.57 158.71 219.79 156.00 230.00 C 153.29 240.21 163.09 250.71 165.00 238.00 C 166.91 225.29 163.09 219.95 167.00 209.00
C 167.20 220.00 166.73 228.78 167.00 240.00 C 167.27 251.22 166.48 258.96 167.00 271.00 C 167.53 283.03 179.85 277.80 178.00 267.00 C 176.15 256.20 180.45 249.23 180.00 239.00
C 180.89 249.69 183.84 255.96 183.00 268.00 C 182.16 280.04 193.89 281.51 193.00 269.00 C 192.11 256.49 193.27 249.33 193.00 238.00 C 192.73 226.67 192.38 218.20 194.00 208.00 Z"/>
</g>
<g fill="#231E1F" fill-opacity="0.90" stroke="None">
<path d="
M 479.00 212.00 
C 481.30 217.52 475.09 233.78 480.92 237.06 C 486.74 240.35 487.69 223.96 486.93 219.07 C 486.17 214.19 486.88 203.03 480.75 199.25 C 474.61 195.48 466.44 195.13 459.03 197.03 C 451.61 198.92 449.40 205.45 448.78 212.78 C 448.16 220.11 447.58 229.46 449.00 237.00
C 462.68 239.06 452.31 217.29 457.00 210.00
C 457.12 218.51 456.84 225.32 457.00 234.00 C 457.16 242.68 456.70 248.70 457.00 258.00 C 457.31 267.30 467.31 263.43 466.00 255.00 C 464.69 246.57 466.75 240.26 468.00 233.00
C 467.12 241.27 470.31 247.46 469.07 255.93 C 467.84 264.40 477.96 266.65 478.00 258.00 C 478.04 249.35 477.80 242.13 478.00 234.00 C 478.20 225.87 477.03 219.13 479.00 212.00 Z"/>
</g>
<g fill="#231F20" fill-opacity="0.93" stroke="None">
<path d="
M 64.00 197.00 
C 47.62 193.53 41.85 217.84 57.78 222.22 C 73.70 226.60 79.31 200.24 64.00 197.00 Z"/>
</g>
<g fill="#231F20" fill-opacity="0.94" stroke="None">
<path d="
M 45.00 284.00 
C 46.30 297.84 44.47 312.11 45.00 326.00
C 41.73 335.12 55.89 336.58 56.67 328.67 C 57.45 320.76 57.20 312.72 58.02 305.02 C 58.85 297.32 58.72 289.88 61.00 283.00
C 60.94 296.69 65.38 305.09 64.00 320.00 C 62.63 334.91 78.00 337.55 77.00 322.00 C 76.00 306.45 77.33 297.19 77.00 283.00 C 76.67 268.81 76.41 258.02 78.00 245.00
C 77.93 257.82 81.42 264.67 79.00 278.00 C 76.58 291.33 91.19 294.34 91.00 281.00 C 90.81 267.66 91.25 258.09 90.00 247.00 C 88.74 235.91 84.68 230.67 75.22 226.78 C 65.76 222.88 55.59 223.74 46.08 227.08 C 36.56 230.42 32.77 236.59 30.99 246.99 C 29.22 257.39 30.81 269.07 30.02 280.97 C 29.24 292.87 43.42 293.28 42.00 280.00 C 40.58 266.72 42.43 258.38 43.00 246.00
C 44.61 257.72 43.86 271.83 45.00 284.00 Z"/>
</g>
<g fill="#000000" fill-opacity="0.00" stroke="None">
<path d="
M 452.00 269.00 
C 437.56 259.93 421.17 257.49 405.07 251.93 C 388.98 246.37 372.61 243.87 356.68 237.32 C 340.74 230.77 319.87 231.45 303.02 229.98 C 286.18 228.50 274.55 239.08 259.07 245.07 C 243.59 251.06 230.38 258.28 215.00 264.00
C 221.25 274.44 208.79 284.33 199.00 285.00
C 212.91 314.00 230.99 341.30 246.00 370.00
C 249.58 369.68 252.11 366.14 256.00 367.00
C 254.27 373.43 233.85 379.96 244.25 388.75 C 254.66 397.53 263.61 396.37 276.00 397.00 C 288.39 397.63 298.55 396.71 308.75 389.75 C 318.95 382.79 305.72 371.09 297.00 371.00
C 300.59 365.05 311.35 372.72 317.30 365.30 C 323.26 357.89 330.44 357.43 336.75 351.75 C 343.07 346.08 349.63 343.16 355.92 337.92 C 362.20 332.68 369.06 329.45 375.25 324.25 C 381.43 319.04 388.39 315.51 394.75 310.75 C 401.11 306.00 407.28 301.20 413.75 296.75 C 420.23 292.31 426.50 287.46 432.92 282.92 C 439.33 278.37 446.41 274.51 452.00 269.00
M 279.00 269.00 
C 293.11 270.99 289.85 295.23 274.92 292.07 C 260.00 288.91 264.34 266.93 279.00 269.00
M 293.00 314.00 
C 291.01 325.47 292.22 335.43 292.00 348.00 C 291.78 360.57 292.04 369.33 292.00 383.00 C 291.96 396.67 278.38 392.86 280.00 380.00 C 281.62 367.14 276.73 358.81 277.00 347.00
C 277.15 358.74 271.89 366.02 274.00 379.00 C 276.11 391.98 262.14 397.21 262.00 383.00 C 261.86 368.79 262.28 360.91 262.00 348.00 C 261.72 335.09 263.04 324.73 261.00 313.00
C 260.83 324.72 258.29 330.18 260.00 343.00 C 261.71 355.82 248.78 355.77 250.00 344.00 C 251.22 332.23 247.95 324.78 250.00 315.00 C 252.05 305.22 254.38 300.83 262.70 296.70 C 271.01 292.56 280.44 292.96 289.07 295.93 C 297.71 298.90 301.33 303.38 303.00 313.00 C 304.67 322.62 302.75 331.55 304.00 343.00 C 305.25 354.45 292.72 357.07 294.00 344.00 C 295.28 330.93 293.49 325.92 293.00 314.00 Z"/>
</g>
<g fill="#231F20" fill-opacity="0.91" stroke="None">
<path d="
M 279.00 269.00 
C 264.34 266.93 260.00 288.91 274.92 292.07 C 289.85 295.23 293.11 270.99 279.00 269.00 Z"/>
</g>
<g fill="#2D1717" fill-opacity="0.04" stroke="None">
<path d="
M 45.00 326.00 
C 44.47 312.11 46.30 297.84 45.00 284.00
C 44.96 297.11 43.11 312.74 45.00 326.00 Z"/>
</g>
<g fill="#000000" fill-opacity="0.00" stroke="None">
<path d="
M 242.00 373.00 
C 237.67 363.76 232.25 353.83 226.92 345.08 C 221.59 336.33 217.41 326.57 211.77 318.23 C 206.13 309.89 202.52 298.20 196.25 290.75 C 189.98 283.30 169.92 285.75 160.69 287.70 C 151.47 289.64 140.59 298.11 131.08 301.08 C 121.57 304.04 111.63 310.83 102.00 314.00
C 112.28 324.95 99.38 336.19 90.00 341.00
C 139.04 353.68 186.97 370.42 236.00 383.00
C 236.18 378.99 238.49 375.12 242.00 373.00 Z"/>
</g>
<g fill="#231E1F" fill-opacity="0.93" stroke="None">
<path d="
M 293.00 314.00 
C 293.49 325.92 295.28 330.93 294.00 344.00 C 292.72 357.07 305.25 354.45 304.00 343.00 C 302.75 331.55 304.67 322.62 303.00 313.00 C 301.33 303.38 297.71 298.90 289.07 295.93 C 280.44 292.96 271.01 292.56 262.70 296.70 C 254.38 300.83 252.05 305.22 250.00 315.00 C 247.95 324.78 251.22 332.23 250.00 344.00 C 248.78 355.77 261.71 355.82 260.00 343.00 C 258.29 330.18 260.83 324.72 261.00 313.00
C 263.04 324.73 261.72 335.09 262.00 348.00 C 262.28 360.91 261.86 368.79 262.00 383.00 C 262.14 397.21 276.11 391.98 274.00 379.00 C 271.89 366.02 277.15 358.74 277.00 347.00
C 276.73 358.81 281.62 367.14 280.00 380.00 C 278.38 392.86 291.96 396.67 292.00 383.00 C 292.04 369.33 291.78 360.57 292.00 348.00 C 292.22 335.43 291.01 325.47 293.00 314.00 Z"/>
</g>
</svg>