<svg xmlns="http://www.w3.org/2000/svg" xmlns:v="https://svgstorm.com"
viewBox = "0 0 512 512"
width="512"
height="512">
<g fill="None" fill-opacity="0.0" stroke="#000000" stroke-opacity="0.00" stroke-width="0.3"><path d="
M 0.00 512.00 
L 512.00 512.00
L 512.00 0.00
L 0.00 0.00
L 0.00 512.00
M 294.00 71.00 
C 316.54 71.00 341.72 67.79 364.00 71.00
C 370.20 24.72 421.71 -3.72 463.69 17.31 C 505.67 38.34 512.76 94.06 482.00 127.00
C 470.26 139.57 453.94 146.66 437.00 148.00
C 434.13 148.23 430.87 148.23 428.00 148.00
C 410.56 146.62 396.33 139.33 384.00 127.00
C 374.59 117.59 363.47 102.18 365.00 88.00
C 353.42 89.04 341.68 88.04 330.00 88.00 C 318.32 87.96 305.67 89.05 294.00 88.00
C 294.00 108.58 291.62 127.51 304.00 144.00
C 307.39 148.51 310.03 152.77 313.77 157.23 C 317.51 161.69 318.42 168.17 320.98 173.02 C 323.53 177.88 320.46 189.46 324.00 193.00
C 335.54 194.84 348.11 198.74 359.22 201.78 C 370.33 204.82 384.68 206.11 395.01 209.99 C 405.34 213.88 423.27 212.25 426.00 224.00
C 429.91 240.80 426.69 261.09 427.00 279.00 C 427.31 296.91 428.62 317.06 427.00 335.00
C 458.27 335.74 482.01 357.96 494.98 386.03 C 507.94 414.09 499.35 453.13 478.00 476.00
C 445.61 510.69 390.68 508.67 358.00 476.00
C 310.61 428.62 341.57 338.71 410.00 335.00
C 410.00 300.33 410.00 265.67 410.00 231.00
C 380.72 225.14 351.99 217.02 323.00 210.00
C 320.28 221.99 308.25 241.97 324.70 248.30 C 341.14 254.64 342.33 272.72 341.01 286.01 C 339.68 299.29 329.70 318.19 315.00 316.00 C 300.30 313.81 287.50 306.02 274.78 300.22 C 262.05 294.43 247.13 290.91 237.75 281.25 C 228.38 271.59 223.55 258.99 212.75 250.25 C 201.96 241.51 189.77 234.69 178.00 228.00
C 178.11 228.06 175.83 226.94 176.00 227.00
C 164.80 223.17 152.62 217.11 140.78 220.78 C 128.94 224.45 125.99 236.79 120.08 245.08 C 114.16 253.36 112.01 269.76 100.00 270.00
C 101.04 281.45 100.00 293.49 100.00 305.00 C 100.00 316.51 101.04 328.55 100.00 340.00
C 119.74 337.86 137.84 352.45 151.25 365.75 C 164.67 379.04 173.19 401.33 172.99 421.01 C 172.79 440.69 164.11 461.89 150.00 476.00
C 119.99 506.01 70.03 510.91 38.00 481.00
C 22.45 466.48 12.87 448.69 11.00 428.00 C 9.13 407.31 15.58 382.37 29.75 367.75 C 43.93 353.13 61.88 337.71 83.00 340.00
C 81.99 328.85 82.73 317.24 83.00 306.00 C 83.27 294.76 81.40 282.14 83.00 271.00
C 67.91 270.86 60.66 252.75 44.93 253.07 C 29.20 253.39 9.55 249.88 10.22 230.78 C 10.89 211.68 9.72 192.21 10.00 174.00 C 10.28 155.79 10.62 137.20 13.99 120.99 C 17.37 104.78 29.10 96.45 43.00 93.00 C 56.90 89.55 81.58 97.25 86.92 79.92 C 92.27 62.60 80.15 51.42 78.07 33.93 C 75.99 16.43 93.82 13.19 111.00 12.00 C 128.18 10.81 138.11 25.23 138.99 41.01 C 139.87 56.78 166.41 56.41 176.00 61.00
C 176.41 61.19 177.51 60.93 178.00 61.00
C 189.49 62.58 203.35 68.16 215.22 65.22 C 227.09 62.28 232.45 55.30 239.25 46.25 C 246.06 37.21 248.82 29.51 259.25 23.25 C 269.67 16.99 275.28 11.62 289.22 10.22 C 303.16 8.82 302.35 25.46 295.70 33.70 C 289.04 41.93 289.72 62.57 294.00 71.00
M 177.00 252.00 
C 183.93 254.09 184.93 267.22 189.92 272.08 C 194.90 276.94 196.78 288.35 204.08 291.92 C 211.38 295.49 220.29 296.73 226.75 302.25 C 233.21 307.77 228.44 321.93 223.70 326.70 C 218.95 331.46 215.08 344.58 206.92 343.92 C 198.77 343.27 188.77 340.58 180.32 339.68 C 171.88 338.78 167.21 327.19 166.01 319.99 C 164.81 312.80 164.86 300.49 158.75 294.25 C 152.64 288.02 156.98 276.02 161.92 270.92 C 166.87 265.83 167.59 249.17 177.00 252.00 Z"/>
</g>
<g fill="None" fill-opacity="0.0" stroke="#FEEB87" stroke-opacity="0.98" stroke-width="0.3"><path d="
M 178.00 61.00 
C 179.48 73.68 176.37 88.62 177.00 102.00 C 177.63 115.38 178.21 130.62 177.00 144.00
C 187.38 144.29 197.60 143.61 208.00 144.00 C 218.40 144.39 229.66 143.27 240.00 144.00 C 250.34 144.73 261.93 142.44 272.00 144.00 C 282.07 145.56 294.60 140.58 304.00 144.00
C 291.62 127.51 294.00 108.58 294.00 88.00
C 294.00 87.50 294.00 87.00 294.00 87.00
C 284.25 87.00 273.67 86.02 264.00 87.00 C 254.33 87.98 249.47 75.52 259.00 72.00
C 268.13 68.63 282.80 71.00 293.00 71.00
C 293.50 71.00 294.00 71.00 294.00 71.00
C 289.72 62.57 289.04 41.93 295.70 33.70 C 302.35 25.46 303.16 8.82 289.22 10.22 C 275.28 11.62 269.67 16.99 259.25 23.25 C 248.82 29.51 246.06 37.21 239.25 46.25 C 232.45 55.30 227.09 62.28 215.22 65.22 C 203.35 68.16 189.49 62.58 178.00 61.00 Z"/>
</g>
<g fill="None" fill-opacity="0.0" stroke="#D7EBFE" stroke-opacity="0.98" stroke-width="0.3"><path d="
M 364.00 71.00 
C 364.35 71.05 364.95 71.65 365.00 72.00
C 365.69 76.77 365.00 82.17 365.00 87.00
C 365.00 87.50 365.00 88.00 365.00 88.00
C 363.47 102.18 374.59 117.59 384.00 127.00
C 381.69 117.22 392.57 106.00 398.75 98.75 C 404.93 91.51 419.37 86.37 429.00 86.00
C 402.17 81.64 403.87 39.85 432.00 39.00 C 460.13 38.15 464.18 81.13 437.00 86.00
C 443.99 86.38 452.65 89.05 458.23 92.77 C 463.81 96.49 470.35 100.93 473.25 106.75 C 476.16 112.56 483.10 120.39 482.00 127.00
C 512.76 94.06 505.67 38.34 463.69 17.31 C 421.71 -3.72 370.20 24.72 364.00 71.00 Z"/>
</g>
<g fill="None" fill-opacity="0.0" stroke="#85CAFE" stroke-opacity="0.99" stroke-width="0.3"><path d="
M 83.00 271.00 
C 83.05 270.65 83.95 270.23 84.00 270.00
C 84.00 259.78 83.01 242.51 84.00 233.00 C 84.99 223.49 78.53 202.68 91.01 202.01 C 103.49 201.34 98.52 222.31 99.00 232.00 C 99.48 241.69 99.00 259.57 99.00 270.00
C 99.00 269.96 100.00 270.00 100.00 270.00
C 112.01 269.76 114.16 253.36 120.08 245.08 C 125.99 236.79 128.94 224.45 140.78 220.78 C 152.62 217.11 164.80 223.17 176.00 227.00
C 172.87 219.14 177.31 208.62 176.00 200.00 C 174.69 191.38 176.49 180.96 176.00 172.00 C 175.51 163.04 176.00 153.06 176.00 144.00
C 176.00 135.15 175.40 125.80 176.00 117.00 C 176.60 108.20 174.49 97.53 176.00 89.00 C 177.51 80.47 172.58 68.71 176.00 61.00
C 166.41 56.41 139.87 56.78 138.99 41.01 C 138.11 25.23 128.18 10.81 111.00 12.00 C 93.82 13.19 75.99 16.43 78.07 33.93 C 80.15 51.42 92.27 62.60 86.92 79.92 C 81.58 97.25 56.90 89.55 43.00 93.00 C 29.10 96.45 17.37 104.78 13.99 120.99 C 10.62 137.20 10.28 155.79 10.00 174.00 C 9.72 192.21 10.89 211.68 10.22 230.78 C 9.55 249.88 29.20 253.39 44.93 253.07 C 60.66 252.75 67.91 270.86 83.00 271.00 Z"/>
</g>
<g fill="None" fill-opacity="0.0" stroke="#FECEC0" stroke-opacity="1.00" stroke-width="0.3"><path d="
M 429.00 86.00 
C 431.63 85.90 434.37 85.86 437.00 86.00
C 464.18 81.13 460.13 38.15 432.00 39.00 C 403.87 39.85 402.17 81.64 429.00 86.00 Z"/>
</g>
<g fill="None" fill-opacity="0.0" stroke="#D6E0AF" stroke-opacity="0.75" stroke-width="0.3"><path d="
M 176.00 144.00 
C 176.00 143.96 177.00 144.00 177.00 144.00
C 178.21 130.62 177.63 115.38 177.00 102.00 C 176.37 88.62 179.48 73.68 178.00 61.00
C 177.51 60.93 176.41 61.19 176.00 61.00
C 172.58 68.71 177.51 80.47 176.00 89.00 C 174.49 97.53 176.60 108.20 176.00 117.00 C 175.40 125.80 176.00 135.15 176.00 144.00 Z"/>
</g>
<g fill="None" fill-opacity="0.0" stroke="#DDDBC9" stroke-opacity="1.00" stroke-width="0.3"><path d="
M 259.00 72.00 
C 269.19 69.74 282.52 72.00 293.00 72.00
C 292.96 72.00 293.00 71.00 293.00 71.00
C 282.80 71.00 268.13 68.63 259.00 72.00 Z"/>
</g>
<g fill="None" fill-opacity="0.0" stroke="#D5D7DB" stroke-opacity="0.80" stroke-width="0.3"><path d="
M 293.00 72.00 
C 304.49 72.00 317.68 73.29 329.00 72.00 C 340.32 70.71 354.30 75.43 365.00 72.00
C 364.95 71.65 364.35 71.05 364.00 71.00
C 341.72 67.79 316.54 71.00 294.00 71.00
C 294.00 71.00 293.50 71.00 293.00 71.00
C 293.00 71.00 292.96 72.00 293.00 72.00 Z"/>
</g>
<g fill="None" fill-opacity="0.0" stroke="#D4D7DB" stroke-opacity="1.00" stroke-width="0.3"><path d="
M 294.00 87.00 
C 317.34 87.00 341.77 84.90 365.00 87.00
C 365.00 82.17 365.69 76.77 365.00 72.00
C 354.30 75.43 340.32 70.71 329.00 72.00 C 317.68 73.29 304.49 72.00 293.00 72.00
C 282.52 72.00 269.19 69.74 259.00 72.00
C 249.47 75.52 254.33 87.98 264.00 87.00 C 273.67 86.02 284.25 87.00 294.00 87.00 Z"/>
</g>
<g fill="None" fill-opacity="0.0" stroke="#FBDB38" stroke-opacity="0.99" stroke-width="0.3"><path d="
M 384.00 127.00 
C 396.33 139.33 410.56 146.62 428.00 148.00
C 430.14 147.96 434.93 147.96 437.00 148.00
C 453.94 146.66 470.26 139.57 482.00 127.00
C 483.10 120.39 476.16 112.56 473.25 106.75 C 470.35 100.93 463.81 96.49 458.23 92.77 C 452.65 89.05 443.99 86.38 437.00 86.00
C 434.37 85.86 431.63 85.90 429.00 86.00
C 419.37 86.37 404.93 91.51 398.75 98.75 C 392.57 106.00 381.69 117.22 384.00 127.00 Z"/>
</g>
<g fill="None" fill-opacity="0.0" stroke="#D2D7DC" stroke-opacity="0.20" stroke-width="0.3"><path d="
M 294.00 88.00 
C 305.67 89.05 318.32 87.96 330.00 88.00 C 341.68 88.04 353.42 89.04 365.00 88.00
C 365.00 88.00 365.00 87.50 365.00 87.00
C 341.77 84.90 317.34 87.00 294.00 87.00
C 294.00 87.00 294.00 87.50 294.00 88.00 Z"/>
</g>
<g fill="None" fill-opacity="0.0" stroke="#9FEEC7" stroke-opacity="0.75" stroke-width="0.3"><path d="
M 176.00 227.00 
C 175.83 226.94 178.11 228.06 178.00 228.00
C 179.17 226.73 175.85 218.29 177.00 215.00 C 178.15 211.71 176.50 205.05 177.00 201.00 C 177.50 196.95 176.81 191.41 177.00 187.00 C 177.19 182.59 176.99 177.59 177.00 173.00 C 177.01 168.41 177.18 163.73 177.00 159.00 C 176.82 154.27 177.43 148.77 177.00 144.00
C 177.00 144.00 176.00 143.96 176.00 144.00
C 176.00 153.06 175.51 163.04 176.00 172.00 C 176.49 180.96 174.69 191.38 176.00 200.00 C 177.31 208.62 172.87 219.14 176.00 227.00 Z"/>
</g>
<g fill="None" fill-opacity="0.0" stroke="#ADFEAC" stroke-opacity="0.99" stroke-width="0.3"><path d="
M 178.00 228.00 
C 189.77 234.69 201.96 241.51 212.75 250.25 C 223.55 258.99 228.38 271.59 237.75 281.25 C 247.13 290.91 262.05 294.43 274.78 300.22 C 287.50 306.02 300.30 313.81 315.00 316.00 C 329.70 318.19 339.68 299.29 341.01 286.01 C 342.33 272.72 341.14 254.64 324.70 248.30 C 308.25 241.97 320.28 221.99 323.00 210.00
C 314.90 207.16 302.92 205.86 295.33 202.67 C 287.73 199.48 271.82 202.11 271.01 190.99 C 270.20 179.87 287.13 183.57 294.67 186.33 C 302.21 189.09 315.55 191.66 324.00 193.00
C 320.46 189.46 323.53 177.88 320.98 173.02 C 318.42 168.17 317.51 161.69 313.77 157.23 C 310.03 152.77 307.39 148.51 304.00 144.00
C 294.60 140.58 282.07 145.56 272.00 144.00 C 261.93 142.44 250.34 144.73 240.00 144.00 C 229.66 143.27 218.40 144.39 208.00 144.00 C 197.60 143.61 187.38 144.29 177.00 144.00
C 177.43 148.77 176.82 154.27 177.00 159.00 C 177.18 163.73 177.01 168.41 177.00 173.00 C 176.99 177.59 177.19 182.59 177.00 187.00 C 176.81 191.41 177.50 196.95 177.00 201.00 C 176.50 205.05 178.15 211.71 177.00 215.00 C 175.85 218.29 179.17 226.73 178.00 228.00 Z"/>
</g>
<g fill="None" fill-opacity="0.0" stroke="#F0E075" stroke-opacity="0.52" stroke-width="0.3"><path d="
M 428.00 148.00 
C 430.87 148.23 434.13 148.23 437.00 148.00
C 434.93 147.96 430.14 147.96 428.00 148.00 Z"/>
</g>
<g fill="None" fill-opacity="0.0" stroke="#D3D7DB" stroke-opacity="0.97" stroke-width="0.3"><path d="
M 323.00 210.00 
C 351.99 217.02 380.72 225.14 410.00 231.00
C 410.00 265.67 410.00 300.33 410.00 335.00
C 415.30 334.71 420.69 335.00 426.00 335.00
C 422.67 298.36 430.08 260.55 426.00 224.00
C 423.27 212.25 405.34 213.88 395.01 209.99 C 384.68 206.11 370.33 204.82 359.22 201.78 C 348.11 198.74 335.54 194.84 324.00 193.00
C 315.55 191.66 302.21 189.09 294.67 186.33 C 287.13 183.57 270.20 179.87 271.01 190.99 C 271.82 202.11 287.73 199.48 295.33 202.67 C 302.92 205.86 314.90 207.16 323.00 210.00 Z"/>
</g>
<g fill="None" fill-opacity="0.0" stroke="#D3D7DB" stroke-opacity="1.00" stroke-width="0.3"><path d="
M 84.00 270.00 
C 84.00 293.01 86.07 317.09 84.00 340.00
C 89.00 340.00 94.00 340.00 99.00 340.00
C 96.93 317.09 99.00 293.01 99.00 270.00
C 99.00 259.57 99.48 241.69 99.00 232.00 C 98.52 222.31 103.49 201.34 91.01 202.01 C 78.53 202.68 84.99 223.49 84.00 233.00 C 83.01 242.51 84.00 259.78 84.00 270.00 Z"/>
</g>
<g fill="None" fill-opacity="0.0" stroke="#D5D5D5" stroke-opacity="0.05" stroke-width="0.3"><path d="
M 426.00 335.00 
C 426.50 335.00 427.00 335.00 427.00 335.00
C 428.62 317.06 427.31 296.91 427.00 279.00 C 426.69 261.09 429.91 240.80 426.00 224.00
C 430.08 260.55 422.67 298.36 426.00 335.00 Z"/>
</g>
<g fill="None" fill-opacity="0.0" stroke="#ADFFAD" stroke-opacity="0.96" stroke-width="0.3"><path d="
M 177.00 252.00 
C 167.59 249.17 166.87 265.83 161.92 270.92 C 156.98 276.02 152.64 288.02 158.75 294.25 C 164.86 300.49 164.81 312.80 166.01 319.99 C 167.21 327.19 171.88 338.78 180.32 339.68 C 188.77 340.58 198.77 343.27 206.92 343.92 C 215.08 344.58 218.95 331.46 223.70 326.70 C 228.44 321.93 233.21 307.77 226.75 302.25 C 220.29 296.73 211.38 295.49 204.08 291.92 C 196.78 288.35 194.90 276.94 189.92 272.08 C 184.93 267.22 183.93 254.09 177.00 252.00 Z"/>
</g>
<g fill="None" fill-opacity="0.0" stroke="#D4D6DC" stroke-opacity="0.45" stroke-width="0.3"><path d="
M 83.00 271.00 
C 81.40 282.14 83.27 294.76 83.00 306.00 C 82.73 317.24 81.99 328.85 83.00 340.00
C 83.49 340.05 84.00 340.00 84.00 340.00
C 86.07 317.09 84.00 293.01 84.00 270.00
C 83.95 270.23 83.05 270.65 83.00 271.00 Z"/>
</g>
<g fill="None" fill-opacity="0.0" stroke="#D4D8DA" stroke-opacity="0.49" stroke-width="0.3"><path d="
M 99.00 340.00 
C 99.50 340.00 100.00 340.00 100.00 340.00
C 101.04 328.55 100.00 316.51 100.00 305.00 C 100.00 293.49 101.04 281.45 100.00 270.00
C 100.00 270.00 99.00 269.96 99.00 270.00
C 99.00 293.01 96.93 317.09 99.00 340.00 Z"/>
</g>
<g fill="None" fill-opacity="0.0" stroke="#D7EBFE" stroke-opacity="0.98" stroke-width="0.3"><path d="
M 358.00 476.00 
C 356.96 468.76 364.64 458.98 368.25 452.25 C 371.86 445.53 379.71 439.80 386.23 435.23 C 392.75 430.66 403.73 426.66 412.00 426.00
C 379.76 420.22 385.06 369.00 418.00 369.00 C 450.94 369.01 456.20 420.23 424.00 426.00
C 432.45 426.67 442.32 430.48 449.23 434.77 C 456.14 439.06 463.76 444.62 467.30 451.70 C 470.85 458.78 479.36 467.84 478.00 476.00
C 499.35 453.13 507.94 414.09 494.98 386.03 C 482.01 357.96 458.27 335.74 427.00 335.00
C 427.00 335.00 426.50 335.00 426.00 335.00
C 420.69 335.00 415.30 334.71 410.00 335.00
C 341.57 338.71 310.61 428.62 358.00 476.00 Z"/>
</g>
<g fill="None" fill-opacity="0.0" stroke="#D6EAFE" stroke-opacity="0.98" stroke-width="0.3"><path d="
M 38.00 481.00 
C 28.71 470.85 41.39 455.66 49.25 446.25 C 57.11 436.83 74.14 429.15 86.00 428.00
C 54.40 422.87 59.06 373.52 91.00 373.00 C 122.94 372.48 129.17 421.54 98.00 428.00
C 122.99 430.42 144.32 452.19 150.00 476.00
C 164.11 461.89 172.79 440.69 172.99 421.01 C 173.19 401.33 164.67 379.04 151.25 365.75 C 137.84 352.45 119.74 337.86 100.00 340.00
C 100.00 340.00 99.50 340.00 99.00 340.00
C 94.00 340.00 89.00 340.00 84.00 340.00
C 84.00 340.00 83.49 340.05 83.00 340.00
C 61.88 337.71 43.93 353.13 29.75 367.75 C 15.58 382.37 9.13 407.31 11.00 428.00 C 12.87 448.69 22.45 466.48 38.00 481.00 Z"/>
</g>
<g fill="None" fill-opacity="0.0" stroke="#FECEC0" stroke-opacity="1.00" stroke-width="0.3"><path d="
M 412.00 426.00 
C 415.83 425.70 420.17 425.70 424.00 426.00
C 456.20 420.23 450.94 369.01 418.00 369.00 C 385.06 369.00 379.76 420.22 412.00 426.00 Z"/>
</g>
<g fill="None" fill-opacity="0.0" stroke="#FECEC0" stroke-opacity="1.00" stroke-width="0.3"><path d="
M 86.00 428.00 
C 89.75 427.64 94.25 427.64 98.00 428.00
C 129.17 421.54 122.94 372.48 91.00 373.00 C 59.06 373.52 54.40 422.87 86.00 428.00 Z"/>
</g>
<g fill="None" fill-opacity="0.0" stroke="#89F189" stroke-opacity="0.99" stroke-width="0.3"><path d="
M 358.00 476.00 
C 390.68 508.67 445.61 510.69 478.00 476.00
C 479.36 467.84 470.85 458.78 467.30 451.70 C 463.76 444.62 456.14 439.06 449.23 434.77 C 442.32 430.48 432.45 426.67 424.00 426.00
C 420.17 425.70 415.83 425.70 412.00 426.00
C 403.73 426.66 392.75 430.66 386.23 435.23 C 379.71 439.80 371.86 445.53 368.25 452.25 C 364.64 458.98 356.96 468.76 358.00 476.00 Z"/>
</g>
<g fill="None" fill-opacity="0.0" stroke="#4FB1FC" stroke-opacity="0.99" stroke-width="0.3"><path d="
M 38.00 481.00 
C 70.03 510.91 119.99 506.01 150.00 476.00
C 144.32 452.19 122.99 430.42 98.00 428.00
C 94.25 427.64 89.75 427.64 86.00 428.00
C 74.14 429.15 57.11 436.83 49.25 446.25 C 41.39 455.66 28.71 470.85 38.00 481.00 Z"/>
</g>
<g fill="#000000" fill-opacity="0.00" stroke="None">
<path d="
M 0.00 512.00 
L 512.00 512.00
L 512.00 0.00
L 0.00 0.00
L 0.00 512.00
M 294.00 71.00 
C 316.54 71.00 341.72 67.79 364.00 71.00
C 370.20 24.72 421.71 -3.72 463.69 17.31 C 505.67 38.34 512.76 94.06 482.00 127.00
C 470.26 139.57 453.94 146.66 437.00 148.00
C 434.13 148.23 430.87 148.23 428.00 148.00
C 410.56 146.62 396.33 139.33 384.00 127.00
C 374.59 117.59 363.47 102.18 365.00 88.00
C 353.42 89.04 341.68 88.04 330.00 88.00 C 318.32 87.96 305.67 89.05 294.00 88.00
C 294.00 108.58 291.62 127.51 304.00 144.00
C 307.39 148.51 310.03 152.77 313.77 157.23 C 317.51 161.69 318.42 168.17 320.98 173.02 C 323.53 177.88 320.46 189.46 324.00 193.00
C 335.54 194.84 348.11 198.74 359.22 201.78 C 370.33 204.82 384.68 206.11 395.01 209.99 C 405.34 213.88 423.27 212.25 426.00 224.00
C 429.91 240.80 426.69 261.09 427.00 279.00 C 427.31 296.91 428.62 317.06 427.00 335.00
C 458.27 335.74 482.01 357.96 494.98 386.03 C 507.94 414.09 499.35 453.13 478.00 476.00
C 445.61 510.69 390.68 508.67 358.00 476.00
C 310.61 428.62 341.57 338.71 410.00 335.00
C 410.00 300.33 410.00 265.67 410.00 231.00
C 380.72 225.14 351.99 217.02 323.00 210.00
C 320.28 221.99 308.25 241.97 324.70 248.30 C 341.14 254.64 342.33 272.72 341.01 286.01 C 339.68 299.29 329.70 318.19 315.00 316.00 C 300.30 313.81 287.50 306.02 274.78 300.22 C 262.05 294.43 247.13 290.91 237.75 281.25 C 228.38 271.59 223.55 258.99 212.75 250.25 C 201.96 241.51 189.77 234.69 178.00 228.00
C 178.11 228.06 175.83 226.94 176.00 227.00
C 164.80 223.17 152.62 217.11 140.78 220.78 C 128.94 224.45 125.99 236.79 120.08 245.08 C 114.16 253.36 112.01 269.76 100.00 270.00
C 101.04 281.45 100.00 293.49 100.00 305.00 C 100.00 316.51 101.04 328.55 100.00 340.00
C 119.74 337.86 137.84 352.45 151.25 365.75 C 164.67 379.04 173.19 401.33 172.99 421.01 C 172.79 440.69 164.11 461.89 150.00 476.00
C 119.99 506.01 70.03 510.91 38.00 481.00
C 22.45 466.48 12.87 448.69 11.00 428.00 C 9.13 407.31 15.58 382.37 29.75 367.75 C 43.93 353.13 61.88 337.71 83.00 340.00
C 81.99 328.85 82.73 317.24 83.00 306.00 C 83.27 294.76 81.40 282.14 83.00 271.00
C 67.91 270.86 60.66 252.75 44.93 253.07 C 29.20 253.39 9.55 249.88 10.22 230.78 C 10.89 211.68 9.72 192.21 10.00 174.00 C 10.28 155.79 10.62 137.20 13.99 120.99 C 17.37 104.78 29.10 96.45 43.00 93.00 C 56.90 89.55 81.58 97.25 86.92 79.92 C 92.27 62.60 80.15 51.42 78.07 33.93 C 75.99 16.43 93.82 13.19 111.00 12.00 C 128.18 10.81 138.11 25.23 138.99 41.01 C 139.87 56.78 166.41 56.41 176.00 61.00
C 176.41 61.19 177.51 60.93 178.00 61.00
C 189.49 62.58 203.35 68.16 215.22 65.22 C 227.09 62.28 232.45 55.30 239.25 46.25 C 246.06 37.21 248.82 29.51 259.25 23.25 C 269.67 16.99 275.28 11.62 289.22 10.22 C 303.16 8.82 302.35 25.46 295.70 33.70 C 289.04 41.93 289.72 62.57 294.00 71.00
M 177.00 252.00 
C 183.93 254.09 184.93 267.22 189.92 272.08 C 194.90 276.94 196.78 288.35 204.08 291.92 C 211.38 295.49 220.29 296.73 226.75 302.25 C 233.21 307.77 228.44 321.93 223.70 326.70 C 218.95 331.46 215.08 344.58 206.92 343.92 C 198.77 343.27 188.77 340.58 180.32 339.68 C 171.88 338.78 167.21 327.19 166.01 319.99 C 164.81 312.80 164.86 300.49 158.75 294.25 C 152.64 288.02 156.98 276.02 161.92 270.92 C 166.87 265.83 167.59 249.17 177.00 252.00 Z"/>
</g>
<g fill="#FEEB87" fill-opacity="0.98" stroke="None">
<path d="
M 178.00 61.00 
C 179.48 73.68 176.37 88.62 177.00 102.00 C 177.63 115.38 178.21 130.62 177.00 144.00
C 187.38 144.29 197.60 143.61 208.00 144.00 C 218.40 144.39 229.66 143.27 240.00 144.00 C 250.34 144.73 261.93 142.44 272.00 144.00 C 282.07 145.56 294.60 140.58 304.00 144.00
C 291.62 127.51 294.00 108.58 294.00 88.00
C 294.00 87.50 294.00 87.00 294.00 87.00
C 284.25 87.00 273.67 86.02 264.00 87.00 C 254.33 87.98 249.47 75.52 259.00 72.00
C 268.13 68.63 282.80 71.00 293.00 71.00
C 293.50 71.00 294.00 71.00 294.00 71.00
C 289.72 62.57 289.04 41.93 295.70 33.70 C 302.35 25.46 303.16 8.82 289.22 10.22 C 275.28 11.62 269.67 16.99 259.25 23.25 C 248.82 29.51 246.06 37.21 239.25 46.25 C 232.45 55.30 227.09 62.28 215.22 65.22 C 203.35 68.16 189.49 62.58 178.00 61.00 Z"/>
</g>
<g fill="#D7EBFE" fill-opacity="0.98" stroke="None">
<path d="
M 364.00 71.00 
C 364.35 71.05 364.95 71.65 365.00 72.00
C 365.69 76.77 365.00 82.17 365.00 87.00
C 365.00 87.50 365.00 88.00 365.00 88.00
C 363.47 102.18 374.59 117.59 384.00 127.00
C 381.69 117.22 392.57 106.00 398.75 98.75 C 404.93 91.51 419.37 86.37 429.00 86.00
C 402.17 81.64 403.87 39.85 432.00 39.00 C 460.13 38.15 464.18 81.13 437.00 86.00
C 443.99 86.38 452.65 89.05 458.23 92.77 C 463.81 96.49 470.35 100.93 473.25 106.75 C 476.16 112.56 483.10 120.39 482.00 127.00
C 512.76 94.06 505.67 38.34 463.69 17.31 C 421.71 -3.72 370.20 24.72 364.00 71.00 Z"/>
</g>
<g fill="#85CAFE" fill-opacity="0.99" stroke="None">
<path d="
M 83.00 271.00 
C 83.05 270.65 83.95 270.23 84.00 270.00
C 84.00 259.78 83.01 242.51 84.00 233.00 C 84.99 223.49 78.53 202.68 91.01 202.01 C 103.49 201.34 98.52 222.31 99.00 232.00 C 99.48 241.69 99.00 259.57 99.00 270.00
C 99.00 269.96 100.00 270.00 100.00 270.00
C 112.01 269.76 114.16 253.36 120.08 245.08 C 125.99 236.79 128.94 224.45 140.78 220.78 C 152.62 217.11 164.80 223.17 176.00 227.00
C 172.87 219.14 177.31 208.62 176.00 200.00 C 174.69 191.38 176.49 180.96 176.00 172.00 C 175.51 163.04 176.00 153.06 176.00 144.00
C 176.00 135.15 175.40 125.80 176.00 117.00 C 176.60 108.20 174.49 97.53 176.00 89.00 C 177.51 80.47 172.58 68.71 176.00 61.00
C 166.41 56.41 139.87 56.78 138.99 41.01 C 138.11 25.23 128.18 10.81 111.00 12.00 C 93.82 13.19 75.99 16.43 78.07 33.93 C 80.15 51.42 92.27 62.60 86.92 79.92 C 81.58 97.25 56.90 89.55 43.00 93.00 C 29.10 96.45 17.37 104.78 13.99 120.99 C 10.62 137.20 10.28 155.79 10.00 174.00 C 9.72 192.21 10.89 211.68 10.22 230.78 C 9.55 249.88 29.20 253.39 44.93 253.07 C 60.66 252.75 67.91 270.86 83.00 271.00 Z"/>
</g>
<g fill="#FECEC0" fill-opacity="1.00" stroke="None">
<path d="
M 429.00 86.00 
C 431.63 85.90 434.37 85.86 437.00 86.00
C 464.18 81.13 460.13 38.15 432.00 39.00 C 403.87 39.85 402.17 81.64 429.00 86.00 Z"/>
</g>
<g fill="#D6E0AF" fill-opacity="0.75" stroke="None">
<path d="
M 176.00 144.00 
C 176.00 143.96 177.00 144.00 177.00 144.00
C 178.21 130.62 177.63 115.38 177.00 102.00 C 176.37 88.62 179.48 73.68 178.00 61.00
C 177.51 60.93 176.41 61.19 176.00 61.00
C 172.58 68.71 177.51 80.47 176.00 89.00 C 174.49 97.53 176.60 108.20 176.00 117.00 C 175.40 125.80 176.00 135.15 176.00 144.00 Z"/>
</g>
<g fill="#DDDBC9" fill-opacity="1.00" stroke="None">
<path d="
M 259.00 72.00 
C 269.19 69.74 282.52 72.00 293.00 72.00
C 292.96 72.00 293.00 71.00 293.00 71.00
C 282.80 71.00 268.13 68.63 259.00 72.00 Z"/>
</g>
<g fill="#D5D7DB" fill-opacity="0.80" stroke="None">
<path d="
M 293.00 72.00 
C 304.49 72.00 317.68 73.29 329.00 72.00 C 340.32 70.71 354.30 75.43 365.00 72.00
C 364.95 71.65 364.35 71.05 364.00 71.00
C 341.72 67.79 316.54 71.00 294.00 71.00
C 294.00 71.00 293.50 71.00 293.00 71.00
C 293.00 71.00 292.96 72.00 293.00 72.00 Z"/>
</g>
<g fill="#D4D7DB" fill-opacity="1.00" stroke="None">
<path d="
M 294.00 87.00 
C 317.34 87.00 341.77 84.90 365.00 87.00
C 365.00 82.17 365.69 76.77 365.00 72.00
C 354.30 75.43 340.32 70.71 329.00 72.00 C 317.68 73.29 304.49 72.00 293.00 72.00
C 282.52 72.00 269.19 69.74 259.00 72.00
C 249.47 75.52 254.33 87.98 264.00 87.00 C 273.67 86.02 284.25 87.00 294.00 87.00 Z"/>
</g>
<g fill="#FBDB38" fill-opacity="0.99" stroke="None">
<path d="
M 384.00 127.00 
C 396.33 139.33 410.56 146.62 428.00 148.00
C 430.14 147.96 434.93 147.96 437.00 148.00
C 453.94 146.66 470.26 139.57 482.00 127.00
C 483.10 120.39 476.16 112.56 473.25 106.75 C 470.35 100.93 463.81 96.49 458.23 92.77 C 452.65 89.05 443.99 86.38 437.00 86.00
C 434.37 85.86 431.63 85.90 429.00 86.00
C 419.37 86.37 404.93 91.51 398.75 98.75 C 392.57 106.00 381.69 117.22 384.00 127.00 Z"/>
</g>
<g fill="#D2D7DC" fill-opacity="0.20" stroke="None">
<path d="
M 294.00 88.00 
C 305.67 89.05 318.32 87.96 330.00 88.00 C 341.68 88.04 353.42 89.04 365.00 88.00
C 365.00 88.00 365.00 87.50 365.00 87.00
C 341.77 84.90 317.34 87.00 294.00 87.00
C 294.00 87.00 294.00 87.50 294.00 88.00 Z"/>
</g>
<g fill="#9FEEC7" fill-opacity="0.75" stroke="None">
<path d="
M 176.00 227.00 
C 175.83 226.94 178.11 228.06 178.00 228.00
C 179.17 226.73 175.85 218.29 177.00 215.00 C 178.15 211.71 176.50 205.05 177.00 201.00 C 177.50 196.95 176.81 191.41 177.00 187.00 C 177.19 182.59 176.99 177.59 177.00 173.00 C 177.01 168.41 177.18 163.73 177.00 159.00 C 176.82 154.27 177.43 148.77 177.00 144.00
C 177.00 144.00 176.00 143.96 176.00 144.00
C 176.00 153.06 175.51 163.04 176.00 172.00 C 176.49 180.96 174.69 191.38 176.00 200.00 C 177.31 208.62 172.87 219.14 176.00 227.00 Z"/>
</g>
<g fill="#ADFEAC" fill-opacity="0.99" stroke="None">
<path d="
M 178.00 228.00 
C 189.77 234.69 201.96 241.51 212.75 250.25 C 223.55 258.99 228.38 271.59 237.75 281.25 C 247.13 290.91 262.05 294.43 274.78 300.22 C 287.50 306.02 300.30 313.81 315.00 316.00 C 329.70 318.19 339.68 299.29 341.01 286.01 C 342.33 272.72 341.14 254.64 324.70 248.30 C 308.25 241.97 320.28 221.99 323.00 210.00
C 314.90 207.16 302.92 205.86 295.33 202.67 C 287.73 199.48 271.82 202.11 271.01 190.99 C 270.20 179.87 287.13 183.57 294.67 186.33 C 302.21 189.09 315.55 191.66 324.00 193.00
C 320.46 189.46 323.53 177.88 320.98 173.02 C 318.42 168.17 317.51 161.69 313.77 157.23 C 310.03 152.77 307.39 148.51 304.00 144.00
C 294.60 140.58 282.07 145.56 272.00 144.00 C 261.93 142.44 250.34 144.73 240.00 144.00 C 229.66 143.27 218.40 144.39 208.00 144.00 C 197.60 143.61 187.38 144.29 177.00 144.00
C 177.43 148.77 176.82 154.27 177.00 159.00 C 177.18 163.73 177.01 168.41 177.00 173.00 C 176.99 177.59 177.19 182.59 177.00 187.00 C 176.81 191.41 177.50 196.95 177.00 201.00 C 176.50 205.05 178.15 211.71 177.00 215.00 C 175.85 218.29 179.17 226.73 178.00 228.00 Z"/>
</g>
<g fill="#F0E075" fill-opacity="0.52" stroke="None">
<path d="
M 428.00 148.00 
C 430.87 148.23 434.13 148.23 437.00 148.00
C 434.93 147.96 430.14 147.96 428.00 148.00 Z"/>
</g>
<g fill="#D3D7DB" fill-opacity="0.97" stroke="None">
<path d="
M 323.00 210.00 
C 351.99 217.02 380.72 225.14 410.00 231.00
C 410.00 265.67 410.00 300.33 410.00 335.00
C 415.30 334.71 420.69 335.00 426.00 335.00
C 422.67 298.36 430.08 260.55 426.00 224.00
C 423.27 212.25 405.34 213.88 395.01 209.99 C 384.68 206.11 370.33 204.82 359.22 201.78 C 348.11 198.74 335.54 194.84 324.00 193.00
C 315.55 191.66 302.21 189.09 294.67 186.33 C 287.13 183.57 270.20 179.87 271.01 190.99 C 271.82 202.11 287.73 199.48 295.33 202.67 C 302.92 205.86 314.90 207.16 323.00 210.00 Z"/>
</g>
<g fill="#D3D7DB" fill-opacity="1.00" stroke="None">
<path d="
M 84.00 270.00 
C 84.00 293.01 86.07 317.09 84.00 340.00
C 89.00 340.00 94.00 340.00 99.00 340.00
C 96.93 317.09 99.00 293.01 99.00 270.00
C 99.00 259.57 99.48 241.69 99.00 232.00 C 98.52 222.31 103.49 201.34 91.01 202.01 C 78.53 202.68 84.99 223.49 84.00 233.00 C 83.01 242.51 84.00 259.78 84.00 270.00 Z"/>
</g>
<g fill="#D5D5D5" fill-opacity="0.05" stroke="None">
<path d="
M 426.00 335.00 
C 426.50 335.00 427.00 335.00 427.00 335.00
C 428.62 317.06 427.31 296.91 427.00 279.00 C 426.69 261.09 429.91 240.80 426.00 224.00
C 430.08 260.55 422.67 298.36 426.00 335.00 Z"/>
</g>
<g fill="#ADFFAD" fill-opacity="0.96" stroke="None">
<path d="
M 177.00 252.00 
C 167.59 249.17 166.87 265.83 161.92 270.92 C 156.98 276.02 152.64 288.02 158.75 294.25 C 164.86 300.49 164.81 312.80 166.01 319.99 C 167.21 327.19 171.88 338.78 180.32 339.68 C 188.77 340.58 198.77 343.27 206.92 343.92 C 215.08 344.58 218.95 331.46 223.70 326.70 C 228.44 321.93 233.21 307.77 226.75 302.25 C 220.29 296.73 211.38 295.49 204.08 291.92 C 196.78 288.35 194.90 276.94 189.92 272.08 C 184.93 267.22 183.93 254.09 177.00 252.00 Z"/>
</g>
<g fill="#D4D6DC" fill-opacity="0.45" stroke="None">
<path d="
M 83.00 271.00 
C 81.40 282.14 83.27 294.76 83.00 306.00 C 82.73 317.24 81.99 328.85 83.00 340.00
C 83.49 340.05 84.00 340.00 84.00 340.00
C 86.07 317.09 84.00 293.01 84.00 270.00
C 83.95 270.23 83.05 270.65 83.00 271.00 Z"/>
</g>
<g fill="#D4D8DA" fill-opacity="0.49" stroke="None">
<path d="
M 99.00 340.00 
C 99.50 340.00 100.00 340.00 100.00 340.00
C 101.04 328.55 100.00 316.51 100.00 305.00 C 100.00 293.49 101.04 281.45 100.00 270.00
C 100.00 270.00 99.00 269.96 99.00 270.00
C 99.00 293.01 96.93 317.09 99.00 340.00 Z"/>
</g>
<g fill="#D7EBFE" fill-opacity="0.98" stroke="None">
<path d="
M 358.00 476.00 
C 356.96 468.76 364.64 458.98 368.25 452.25 C 371.86 445.53 379.71 439.80 386.23 435.23 C 392.75 430.66 403.73 426.66 412.00 426.00
C 379.76 420.22 385.06 369.00 418.00 369.00 C 450.94 369.01 456.20 420.23 424.00 426.00
C 432.45 426.67 442.32 430.48 449.23 434.77 C 456.14 439.06 463.76 444.62 467.30 451.70 C 470.85 458.78 479.36 467.84 478.00 476.00
C 499.35 453.13 507.94 414.09 494.98 386.03 C 482.01 357.96 458.27 335.74 427.00 335.00
C 427.00 335.00 426.50 335.00 426.00 335.00
C 420.69 335.00 415.30 334.71 410.00 335.00
C 341.57 338.71 310.61 428.62 358.00 476.00 Z"/>
</g>
<g fill="#D6EAFE" fill-opacity="0.98" stroke="None">
<path d="
M 38.00 481.00 
C 28.71 470.85 41.39 455.66 49.25 446.25 C 57.11 436.83 74.14 429.15 86.00 428.00
C 54.40 422.87 59.06 373.52 91.00 373.00 C 122.94 372.48 129.17 421.54 98.00 428.00
C 122.99 430.42 144.32 452.19 150.00 476.00
C 164.11 461.89 172.79 440.69 172.99 421.01 C 173.19 401.33 164.67 379.04 151.25 365.75 C 137.84 352.45 119.74 337.86 100.00 340.00
C 100.00 340.00 99.50 340.00 99.00 340.00
C 94.00 340.00 89.00 340.00 84.00 340.00
C 84.00 340.00 83.49 340.05 83.00 340.00
C 61.88 337.71 43.93 353.13 29.75 367.75 C 15.58 382.37 9.13 407.31 11.00 428.00 C 12.87 448.69 22.45 466.48 38.00 481.00 Z"/>
</g>
<g fill="#FECEC0" fill-opacity="1.00" stroke="None">
<path d="
M 412.00 426.00 
C 415.83 425.70 420.17 425.70 424.00 426.00
C 456.20 420.23 450.94 369.01 418.00 369.00 C 385.06 369.00 379.76 420.22 412.00 426.00 Z"/>
</g>
<g fill="#FECEC0" fill-opacity="1.00" stroke="None">
<path d="
M 86.00 428.00 
C 89.75 427.64 94.25 427.64 98.00 428.00
C 129.17 421.54 122.94 372.48 91.00 373.00 C 59.06 373.52 54.40 422.87 86.00 428.00 Z"/>
</g>
<g fill="#89F189" fill-opacity="0.99" stroke="None">
<path d="
M 358.00 476.00 
C 390.68 508.67 445.61 510.69 478.00 476.00
C 479.36 467.84 470.85 458.78 467.30 451.70 C 463.76 444.62 456.14 439.06 449.23 434.77 C 442.32 430.48 432.45 426.67 424.00 426.00
C 420.17 425.70 415.83 425.70 412.00 426.00
C 403.73 426.66 392.75 430.66 386.23 435.23 C 379.71 439.80 371.86 445.53 368.25 452.25 C 364.64 458.98 356.96 468.76 358.00 476.00 Z"/>
</g>
<g fill="#4FB1FC" fill-opacity="0.99" stroke="None">
<path d="
M 38.00 481.00 
C 70.03 510.91 119.99 506.01 150.00 476.00
C 144.32 452.19 122.99 430.42 98.00 428.00
C 94.25 427.64 89.75 427.64 86.00 428.00
C 74.14 429.15 57.11 436.83 49.25 446.25 C 41.39 455.66 28.71 470.85 38.00 481.00 Z"/>
</g>
</svg>