<?xml version="1.0" standalone="no"?>
<!DOCTYPE svg PUBLIC "-//W3C//DTD SVG 20010904//EN"
 "http://www.w3.org/TR/2001/REC-SVG-20010904/DTD/svg10.dtd">
<svg version="1.0" xmlns="http://www.w3.org/2000/svg"
 width="538.000000pt" height="1055.000000pt" viewBox="0 0 538.000000 1055.000000"
 preserveAspectRatio="xMidYMid meet">

<g transform="translate(0.000000,1055.000000) scale(0.100000,-0.100000)"
fill="#000000" stroke="none">
<path d="M2420 8346 c-145 -1213 -267 -2203 -270 -2201 -21 13 -353 -106 -487
-174 -656 -329 -1135 -941 -1292 -1648 -28 -125 -51 -292 -51 -370 l0 -63
-154 0 -154 0 -4 -38 c-7 -75 -13 -72 153 -72 82 0 149 -4 149 -8 0 -58 25
-301 40 -383 118 -665 505 -1249 1065 -1611 138 -89 191 -119 200 -110 4 4 4
-9 1 -28 -15 -88 -196 -1633 -192 -1637 2 -3 286 162 629 366 344 204 630 371
636 371 7 0 294 -167 637 -371 344 -204 627 -369 630 -367 2 3 -40 376 -95
829 -75 617 -97 826 -88 832 7 4 58 34 114 67 57 33 149 95 205 137 123 92
358 324 452 446 291 378 479 866 503 1309 l6 118 164 0 163 0 0 60 0 60 -165
0 -165 0 0 68 c0 37 -9 126 -19 197 -33 223 -81 396 -165 598 -231 556 -692
1031 -1238 1278 -106 47 -280 111 -353 128 l-51 12 -233 1937 c-128 1065 -247
2057 -264 2205 -18 147 -34 267 -37 267 -3 0 -124 -992 -270 -2204z m-270
-2326 c0 -25 -99 -857 -105 -887 l-5 -23 -220 0 -220 0 0 -1295 0 -1295 50 0
c28 0 50 5 50 10 0 6 7 10 15 10 8 0 15 -9 15 -19 0 -22 -77 -670 -85 -718 -3
-18 -10 -33 -16 -33 -5 0 -52 26 -105 57 -524 314 -911 856 -1049 1469 -28
124 -55 337 -55 431 l0 63 165 0 165 0 0 45 0 45 -166 0 -166 0 7 88 c43 543
261 1040 626 1426 272 288 583 483 974 611 120 40 125 40 125 15z m1197 -21
c702 -222 1272 -798 1495 -1506 55 -177 85 -341 103 -565 l7 -78 -156 0 -156
0 0 -50 0 -50 156 0 157 0 -7 -92 c-44 -587 -271 -1093 -670 -1494 -137 -137
-215 -201 -370 -303 -109 -72 -151 -91 -165 -75 -7 8 -92 692 -91 737 0 14 9
17 55 17 l55 0 0 1228 c0 1216 0 1229 -20 1247 -12 11 -20 31 -20 52 0 33 -1
33 -47 34 -27 1 -113 4 -193 8 l-144 6 -53 435 c-57 475 -57 480 -43 480 5 0
54 -14 107 -31z m331 -1005 l42 -5 0 -1200 0 -1199 -242 0 -243 1 -540 883
-540 882 -3 -883 -2 -883 -220 0 -220 0 0 1205 0 1205 269 0 269 0 503 -822
504 -821 3 827 2 828 188 -7 c103 -3 206 -8 230 -11z"/>
</g>
</svg>
